<?xml version="1.0" encoding="UTF-8" standalone="no"?>
<!-- Created with Inkscape (http://www.inkscape.org/) -->

<svg
   xmlns:dc="http://purl.org/dc/elements/1.1/"
   xmlns:cc="http://creativecommons.org/ns#"
   xmlns:rdf="http://www.w3.org/1999/02/22-rdf-syntax-ns#"
   xmlns:svg="http://www.w3.org/2000/svg"
   xmlns="http://www.w3.org/2000/svg"
   xmlns:sodipodi="http://sodipodi.sourceforge.net/DTD/sodipodi-0.dtd"
   xmlns:inkscape="http://www.inkscape.org/namespaces/inkscape"
   version="1.1"
   id="svg2"
   xml:space="preserve"
   width="1920"
   height="1080"
   viewBox="0 0 1919.9999 1080"
   sodipodi:docname="deneme_2.svg"
   inkscape:version="0.92.2 2405546, 2018-03-11"
   inkscape:export-filename="/home/trlinux/Downloads/deneme_2.png"
   inkscape:export-xdpi="96"
   inkscape:export-ydpi="96"><metadata
     id="metadata8"><rdf:RDF><cc:Work
         rdf:about=""><dc:format>image/svg+xml</dc:format><dc:type
           rdf:resource="http://purl.org/dc/dcmitype/StillImage" /><dc:title /></cc:Work></rdf:RDF></metadata><defs
     id="defs6"><clipPath
       clipPathUnits="userSpaceOnUse"
       id="clipPath18"><path
         d="M 0,800 H 800 V 0 H 0 Z"
         id="path16"
         inkscape:connector-curvature="0" /></clipPath><clipPath
       clipPathUnits="userSpaceOnUse"
       id="clipPath3426"><path
         d="M 0,800 H 800 V 0 H 0 Z"
         id="path3424"
         inkscape:connector-curvature="0" /></clipPath></defs><sodipodi:namedview
     pagecolor="#ffffff"
     bordercolor="#666666"
     borderopacity="1"
     objecttolerance="10"
     gridtolerance="10"
     guidetolerance="10"
     inkscape:pageopacity="0"
     inkscape:pageshadow="2"
     inkscape:window-width="1366"
     inkscape:window-height="704"
     id="namedview4"
     showgrid="false"
     inkscape:zoom="0.31289474"
     inkscape:cx="799.5297"
     inkscape:cy="255.74734"
     inkscape:window-x="0"
     inkscape:window-y="0"
     inkscape:window-maximized="1"
     inkscape:current-layer="g10" /><g
     id="g10"
     inkscape:groupmode="layer"
     inkscape:label="14669-NPP3OF"
     transform="matrix(1.3333333,0,0,-1.3333333,0,1080)"><rect
       style="fill:#e6e6e6;fill-opacity:1;stroke:none;stroke-width:11.2271986;stroke-linecap:round;stroke-linejoin:round;stroke-miterlimit:4;stroke-dasharray:none;stroke-opacity:1"
       id="rect8981"
       width="1440"
       height="810"
       x="0"
       y="-810"
       transform="scale(1,-1)" /><path
       style="fill:#333333;fill-opacity:1;stroke:none;stroke-width:1px;stroke-linecap:butt;stroke-linejoin:miter;stroke-opacity:1"
       d="m 1067.4026,453.094 c 10.8679,24.89487 -9.6695,24.57306 -12.7356,39.96301 -0.3355,3.21999 33.1933,-21.83187 47.3508,-31.12174 18.5204,-12.44043 25.4528,2.39951 15.0009,11.23986 -6.6908,5.99342 -9.538,7.7045 -9.125,9.50782 4.9704,11.50773 57.7487,-26.28268 65.0386,-22.09689 8.3859,5.50916 -27.1904,34.39539 -41.3232,39.33716 -7.3245,2.47653 -13.5837,4.70782 -13.9082,4.95898 -1.1352,0.87836 0.7901,0.5973 7.9531,-1.1582 18.1457,-2.95463 54.752,-15.53795 62.4348,-17.39148 5.2914,-0.16832 9.3162,5.5733 4.6423,8.26155 -14.9544,9.17447 -35.2872,12.58746 -50.4069,20.20866 11.9556,6.44911 49.2063,-11.41742 53.316,-7.47362 7.8733,7.35105 -35.7196,27.43666 -51.276,30.07934 -47.9847,7.70912 -77.3421,18.91934 -93.6148,45.52602 -1.872,3.061 -5.8676,8.42539 -10.5,14.28907 4.5029,2.82712 25.3202,4.65291 28.5385,10.01961 2.0266,3.37949 2.0568,8.37293 2.0734,8.82912 0.022,0.002 0.05,9.4e-4 0.059,0.0117 0.1208,0.14916 -0.066,1.33333 -0.414,2.63086 -0.8856,3.29711 -3.7935,6.16043 -9.8086,9.66016 -10.2925,5.98849 -12.9712,7.70359 -13.9805,8.94531 l -1.0273,1.26563 5.5878,0.16992 5.5899,0.17187 -2.0313,2.37891 c -3.3479,3.92288 -7.0366,5.70088 -15.6718,7.55664 -7.7301,1.66128 -9.1586,2.4482 -10.5547,5.81836 -0.4562,1.10112 -0.1856,1.22298 5.6094,2.50977 3.3489,0.74362 6.4144,1.60631 6.8105,1.91601 0.5819,0.4548 0.3509,1.11949 -1.1953,3.46289 -1.0529,1.59572 -2.9423,3.87801 -4.1992,5.07031 l -2.2852,2.16797 -5.7109,-0.97656 c -5.5251,-0.94509 -10.62,-0.83907 -11.4532,0.24024 -0.4684,0.60684 2.7126,4.85751 5.2969,7.07812 l 2.1231,1.82422 -1.7442,1.49219 c -1.1178,0.95495 -2.3645,1.75255 -3.5937,2.3457 l 0.2461,0.18945 c 0,0 -13.9639,4.9603 -26.26761,6.39258 -13.90781,1.61899 -23.5842,-4.60026 -24.57421,-5.26562 -0.0197,0.0246 -0.0341,0.0516 -0.0371,0.0801 -0.04,0.37278 1.84084,2.65821 4.17968,5.07813 7.62066,7.8848 12.23205,14.26913 14.34961,19.86523 2.7784,7.34282 3.44255,10.77846 2.96485,15.36328 H 1920 V 453.094 Z"
       transform="matrix(0.75000002,0,0,-0.75000002,0,810.00002)"
       id="path13"
       inkscape:connector-curvature="0"
       sodipodi:nodetypes="ccccccccccccccccccccccccccccccccccccccccccccccccc" /><path
       style="fill:#333333;fill-opacity:1;stroke-width:0.4259586"
       d="m 667.21449,269.93597 c 0.20682,0.2678 0.57548,2.30111 0.81936,4.51846 0.39112,3.55218 0.60909,4.27989 1.83687,6.12047 0.76636,1.14893 1.41368,2.28347 1.43841,2.52119 0.0245,0.23776 -0.80408,0.14312 -1.84201,-0.21028 -4.43713,-1.51081 -10.46919,-3.1674 -12.84987,-3.52893 -3.80416,-0.57768 -8.32309,-3.76911 -4.84141,-3.41914 1.37628,0.13825 2.07585,0.45099 6.41944,2.86921 1.39384,0.77596 2.2669,0.94254 3.99596,0.76236 3.58383,-0.37349 5.16777,-2.88265 4.70246,-7.44937 -0.28391,-2.81469 -0.26795,-2.94595 0.32079,-2.18397 z m 55.1318,-2.57317 c 0.35828,3.43862 -0.13886,6.01562 -2.22265,11.52273 -1.58817,4.19708 -5.04722,8.98544 -10.76271,14.89905 -1.75413,1.81494 -3.16486,3.5286 -3.13489,3.80818 0.0397,0.37536 1.96704,0.31194 7.36232,-0.24211 5.06293,-0.52008 7.84141,-0.62584 9.04445,-0.34482 l 1.73667,0.40562 -4.41206,2.68856 c -8.24467,5.02409 -16.64061,13.98363 -16.9788,18.11868 -0.27908,3.41254 1.83113,2.5464 5.68526,-2.33344 2.88273,-3.65007 4.2927,-4.55389 7.65922,-4.90966 2.31646,-0.24517 6.88418,-2.45363 11.28417,-5.45674 5.70839,-3.89609 11.28432,-7.22883 12.7809,-7.63902 1.52739,-0.4186 4.34478,0.6726 6.50758,2.52034 l 1.30891,1.11821 -1.59256,1.36842 c -1.93825,1.66546 -4.32392,4.85351 -3.97257,5.30864 0.62487,0.80947 4.44532,0.89009 8.58909,0.18127 l 4.28349,-0.73267 1.71404,1.62592 c 0.9427,0.89423 2.36017,2.60509 3.14982,3.80188 1.15967,1.75755 1.33188,2.25722 0.89544,2.59832 -0.29708,0.23228 -2.5952,0.87864 -5.10692,1.43636 -4.34612,0.96509 -4.54923,1.05598 -4.20708,1.88182 1.04713,2.52763 2.11755,3.11781 7.9151,4.36376 6.47642,1.39183 9.24333,2.72617 11.75428,5.66832 l 1.52292,1.78443 -4.19148,0.12815 -4.19147,0.12815 0.77116,0.94896 c 0.75699,0.93129 2.76624,2.21674 10.48556,6.70811 4.51133,2.6248 6.69204,4.77272 7.35624,7.24555 0.26128,0.97315 0.40091,1.86094 0.31033,1.97281 -0.0909,0.11188 -1.12724,-0.38397 -2.30319,-1.10194 -1.17604,-0.71797 -2.37512,-1.28072 -2.66468,-1.25057 -0.28956,0.0302 -1.63781,-0.60699 -2.9961,-1.41596 -2.98184,-1.77593 -4.22508,-2.21932 -21.1186,-7.53159 -15.78646,-4.96414 -23.39782,-6.96074 -31.91009,-8.37061 -14.8706,-2.46304 -19.74265,-2.31059 -28.81403,0.90144 -5.63545,1.99542 -6.01374,2.07173 -14.89027,3.00451 -7.75521,0.81568 -9.84642,0.89048 -14.07986,0.50828 -5.55474,-0.50145 -9.73447,-1.15263 -9.47236,-1.47572 0.16876,-0.2082 9.20518,-2.18736 15.28662,-3.34812 1.67445,-0.3197 3.03089,-0.71098 3.01433,-0.86976 -0.0859,-0.82447 -4.79624,-3.43765 -10.06759,-5.58528 l -3.61135,-1.47134 3.75933,-2.39852 c 2.06758,-1.31914 4.38513,-2.86524 5.15013,-3.4357 1.56926,-1.17027 3.89406,-3.72915 3.84198,-4.22897 -0.0186,-0.18128 -0.68835,-0.59493 -1.48763,-0.9191 -1.20912,-0.4903 -2.96545,-0.46103 -10.45094,0.17418 -8.15519,0.69201 -9.07324,0.69563 -9.80531,0.0385 -1.03379,-0.92764 -2.45676,-0.76671 -5.35857,0.60579 -1.27742,0.60424 -2.85165,1.15265 -3.49839,1.21871 -1.64676,0.16782 -4.43696,-0.35088 -4.48745,-0.83491 -0.0236,-0.22204 0.10646,-0.41921 0.28804,-0.43812 0.18168,-0.0189 0.99108,-0.82536 1.79888,-1.79204 l 1.46888,-1.75763 -0.91248,-6.11618 c -0.50178,-3.36393 -1.18565,-7.58131 -1.51962,-9.37198 l -0.6073,-3.25578 2.65462,-0.27663 2.65463,-0.27663 -0.52128,-2.94352 c -0.2866,-1.61899 -0.44008,-2.95203 -0.34105,-2.96237 0.0994,-0.0113 2.26875,1.17416 4.82098,2.63222 2.55223,1.45803 6.8098,3.80823 9.4613,5.22266 l 4.82074,2.57167 2.53356,-0.53462 2.53341,-0.53465 4.11465,6.44684 c 3.85313,6.03693 5.1351,7.66823 4.98467,6.3431 -0.0321,-0.30504 -0.9297,-3.34602 -1.98908,-6.75838 -2.73972,-8.82444 -2.7404,-8.81549 0.61812,-7.52089 1.02619,0.39555 2.41142,0.81589 3.07816,0.93413 1.20364,0.21339 1.21081,0.20061 1.00357,-1.78876 l -0.20885,-2.00366 1.39341,0.0149 c 1.89613,0.0206 8.46796,-2.09835 16.31846,-5.26145 13.04159,-5.2546 19.93236,-9.35836 24.24125,-14.43664 l 1.62101,-1.91048 z m -84.67454,11.16567 c 0.54814,4.95796 0.53151,5.01002 -1.77329,4.39981 -0.67198,-0.17828 -4.31828,-0.1796 -8.10301,-0.003 -9.55198,0.44614 -10.35691,0.0743 -2.85125,-1.31698 3.32763,-0.61687 6.74894,-1.40255 7.60284,-1.74597 1.81128,-0.72848 4.25538,-3.20382 4.15973,-4.21284 -0.0396,-0.38363 0.0515,-0.9314 0.19441,-1.2164 0.14335,-0.28502 0.49014,1.55787 0.77057,4.09528 z m -18.05571,19.66838 c -0.31404,4.50456 -0.21265,5.72177 0.55514,6.66355 0.88825,1.08969 3.13632,1.44256 4.27563,0.67105 0.64031,-0.43361 0.7022,-0.79547 0.34232,-2.00429 -0.41737,-1.40251 -0.39255,-1.4562 0.50398,-1.09024 1.85932,0.75899 2.40399,2.32157 1.66566,4.77832 l -0.45391,1.51023 -1.84498,-0.51154 c -1.72729,-0.4789 -1.97497,-0.4496 -3.88123,0.45974 -2.02334,0.9652 -2.04073,0.96594 -2.78024,0.11412 -1.10504,-1.27307 -3.35395,-1.77966 -6.46242,-1.45572 -3.17685,0.33106 -3.33335,0.12496 -2.19623,-2.89311 1.49192,-3.95982 4.18843,-6.3987 8.13728,-7.36008 l 2.25524,-0.54902 z m -4.53785,13.97246 c 0.55244,0.49426 1.62524,1.70124 2.38407,2.6821 1.78605,2.3087 2.48824,2.70841 4.43173,2.52241 1.72552,-0.16482 2.15395,-0.88731 2.34346,-3.94991 l 0.085,-1.3727 1.81931,0.94887 1.81913,0.94885 1.24104,-1.77953 1.24104,-1.77953 2.55055,1.88558 c 3.99815,2.95598 7.62755,3.42205 12.40042,1.59245 3.42807,-1.31415 3.99672,-1.28408 4.46895,0.23619 l 0.40462,1.30214 2.19497,-0.50152 c 1.20711,-0.27589 3.80526,-0.76722 5.77356,-1.09201 l 3.57877,-0.59049 -3.21484,2.02742 c -1.76823,1.1151 -4.59094,2.69259 -6.27281,3.50557 -1.68188,0.81295 -3.12636,1.54742 -3.21002,1.63218 -0.45721,0.46333 1.46854,1.41881 5.28073,2.61986 2.36229,0.74425 4.60166,1.58757 4.97639,1.87403 0.58477,0.447 0.35321,0.55558 -1.63333,0.7659 -4.38994,0.46501 -17.8033,5.63514 -19.90179,7.67132 -1.8172,1.76337 -1.23985,2.81879 2.44578,4.47015 4.31008,1.93119 15.51919,7.82148 17.55672,9.22596 l 1.61501,1.11317 -2.35654,0.2625 c -4.9536,0.55269 -11.66506,-0.51689 -20.10744,-3.20473 -10.13049,-3.22531 -16.10302,-6.29854 -22.492,-11.57346 -3.78212,-3.12268 -3.96243,-3.21768 -4.12959,-2.17632 -0.16014,0.99725 -0.29487,0.89046 -1.60151,-1.26927 -1.07785,-1.7814 -1.64734,-3.45032 -2.32868,-6.82371 -1.04933,-5.19462 -0.87171,-7.37581 0.78745,-9.6737 0.96128,-1.33128 1.33145,-1.5123 3.95308,-1.9339 2.60693,-0.4191 2.99171,-0.37645 3.89684,0.43366 z m 6.66089,0.73752 c 0.22456,2.15518 -0.42141,2.56697 -2.00798,1.27991 -0.95182,-0.77225 -1.38615,-1.82875 -0.59465,-1.44663 0.239,0.11543 0.7824,-0.21902 1.20745,-0.74293 0.42504,-0.52398 0.86816,-0.96265 0.98465,-0.97478 0.1165,-0.0112 0.30121,0.83583 0.41053,1.88443 z m 29.64514,23.51344 c 1.20001,0.21383 3.77309,0.51112 5.71793,0.66066 1.94484,0.14949 4.36875,0.47161 5.38641,0.71559 1.01759,0.24402 4.37593,0.46004 7.46304,0.48002 6.26757,0.0406 15.45832,-1.26923 20.71879,-2.95276 1.59567,-0.51065 4.35372,-1.28496 6.12905,-1.72071 l 3.228,-0.79225 7.01552,2.51257 c 12.95903,4.64114 21.73342,6.85243 32.44522,8.17677 9.2923,1.14882 8.83594,0.98149 12.92846,4.74026 5.22949,4.80285 20.7941,23.81098 24.62046,30.06747 12.20449,19.95501 26.04763,27.34784 62.03615,33.12969 18.33042,2.94499 22.97876,3.83518 26.21917,5.02131 5.89344,2.15725 6.28294,3.03541 1.0018,2.25803 -4.92186,-0.72448 -15.65494,-1.285 -23.25422,-1.21443 -5.14481,0.0477 -6.92326,0.20964 -8.48492,0.77229 -1.08655,0.39151 -1.90221,0.89691 -1.81239,1.12311 0.0898,0.22619 2.79325,1.2027 6.00766,2.16996 5.7354,1.72591 12.15899,4.42141 16.66703,6.99381 1.25142,0.71406 2.05019,1.32174 1.77524,1.35042 -0.27487,0.0286 -3.92142,-0.75688 -8.10334,-1.74563 -10.05992,-2.37841 -19.79948,-4.23446 -29.63206,-5.6469 -9.20239,-1.32191 -10.43752,-1.55496 -17.79494,-3.35809 -5.37224,-1.31663 -6.81588,-1.52671 -5.96452,-0.86794 0.24337,0.18837 4.93706,1.86217 10.43043,3.71957 17.27788,5.84199 38.32152,16.53418 43.09371,21.89576 0.81404,0.9146 1.40725,1.75275 1.31811,1.86255 -0.0892,0.11 -2.01525,-0.94567 -4.2802,-2.34551 -2.26512,-1.39986 -5.68331,-3.14157 -7.59607,-3.87045 -1.91268,-0.72891 -4.07211,-1.66166 -4.79861,-2.07277 -6.11428,-3.45983 -28.31841,-8.95817 -32.63989,-8.08247 -1.35737,0.27499 -1.31997,0.314 6.84415,7.13112 7.8203,6.52997 14.17348,12.71949 14.29977,13.93126 0.0321,0.30878 0.87087,1.88423 1.86371,3.50101 1.92804,3.13952 2.5302,4.90336 1.10572,3.23904 -4.18211,-4.88633 -16.63875,-15.52628 -23.27651,-19.88191 -10.61817,-6.9674 -31.56963,-16.16818 -31.31797,-13.75319 0.0743,0.7149 2.3774,3.89253 8.83027,12.18411 6.73932,8.65962 10.56349,14.54147 13.29974,20.45591 1.85434,4.00796 2.07721,4.80717 2.54608,9.13346 0.61228,5.64971 0.0794,7.30686 -1.0923,3.39489 -2.50251,-8.35742 -5.36506,-13.61182 -11.55945,-21.21807 -12.32673,-15.13633 -35.34052,-32.26912 -55.17883,-41.07836 -3.5899,-1.59407 -6.80254,-1.98061 -6.67988,-0.80375 0.0279,0.26871 0.63803,3.13957 1.35569,6.37967 1.37357,6.20167 2.29314,15.48752 1.67393,16.90395 -0.2606,0.59625 -0.43923,0.12178 -0.732,-1.94507 -1.06232,-7.49789 -7.17609,-18.29835 -13.65311,-24.11922 -1.85122,-1.66356 -3.39743,-2.58084 -5.80986,-3.44636 -3.57598,-1.28306 -3.42352,-1.09556 -5.11679,-6.29173 -2.26655,-6.9549 -5.25438,-13.75367 -8.54857,-19.45177 -5.92433,-10.2476 -10.98768,-16.1023 -20.52657,-23.73508 -6.63657,-5.3104 -9.48992,-7.1778 -17.18283,-11.2454 -2.30589,-1.21922 -4.20193,-2.30718 -4.21341,-2.41766 -0.033,-0.31173 0.85474,-0.26964 3.22791,0.15322 z m -25.12147,10.87768 c 4.01975,2.1629 5.32048,2.59348 14.04667,4.64967 6.82837,1.60904 11.28677,2.0251 19.3046,1.80154 7.79624,-0.21741 8.19579,-0.10907 11.57507,3.1365 2.39429,2.29957 6.62814,7.7382 7.29774,9.37421 0.37228,0.90994 0.31158,0.96892 -0.84106,0.81679 -0.68329,-0.0901 -3.75764,-0.013 -6.83184,0.17044 -6.90713,0.41335 -10.40679,1.47673 -15.4341,4.68974 -5.54402,3.54326 -7.88749,7.27461 -7.41524,11.80647 0.3126,2.99993 1.15552,4.36116 3.76608,6.08134 2.93541,1.93428 5.88694,2.74904 9.45219,2.60921 5.32943,-0.20896 3.43288,0.43459 -3.1023,1.05274 -6.66638,0.63055 -6.099,0.67994 -17.8277,-1.55166 -3.10248,-0.59032 -6.81875,-0.99557 -8.6037,-0.93824 l -3.14206,0.10102 0.41813,0.9794 c 1.96973,4.61357 7.98406,8.20298 20.12819,12.01274 6.57165,2.06166 6.59234,2.07215 4.7087,2.4095 -2.94419,0.52728 -9.71439,0.26478 -13.24124,-0.5134 -4.77319,-1.05312 -7.94464,-2.39022 -16.32935,-6.88443 -7.89297,-4.23069 -9.36296,-4.65168 -10.08313,-2.88759 -0.62445,1.52993 0.6729,8.98452 2.06927,11.89002 2.52656,5.25663 7.4502,10.23423 13.65927,13.80906 2.2355,1.28705 3.22783,2.07155 2.79789,2.21181 -0.90032,0.29372 -6.48411,-1.82229 -9.33713,-3.53837 -3.02767,-1.82119 -14.41861,-9.8163 -20.04605,-14.07008 -8.45707,-6.39264 -11.00532,-6.79906 -11.83119,-1.88693 -0.40133,2.38683 0.882,8.04525 2.91404,12.84618 1.96679,4.6476 7.0125,12.68129 9.43928,15.02942 1.07481,1.03993 1.88565,1.97527 1.80183,2.07853 -0.0836,0.10308 -1.36327,-0.36224 -2.84331,-1.03442 -8.52527,-3.87165 -17.01627,-16.19663 -20.40761,-29.62259 -0.87771,-3.47473 -0.9059,-3.52039 -2.09679,-3.3963 -4.51699,0.47071 -8.36632,8.20096 -7.74474,15.55289 0.11987,1.41694 0.1403,3.16247 0.0456,3.87898 l -0.17247,1.30278 -0.51672,-1.23099 c -0.28416,-0.67699 -0.86707,-4.66336 -1.2954,-8.85856 -0.72213,-7.07401 -0.7233,-7.90658 -0.0168,-11.47074 0.94684,-4.777 2.7182,-9.51524 4.43653,-11.86769 2.22688,-3.04855 4.91537,-5.31661 19.47083,-16.42599 7.74406,-5.91062 15.22745,-11.75778 16.62972,-12.99372 3.46733,-3.056 8.33322,-8.85689 9.40002,-11.20622 0.48161,-1.06072 1.0977,-1.95167 1.36877,-1.97992 0.27114,-0.0283 2.26461,0.90186 4.42986,2.06689 z"
       id="path4487"
       inkscape:connector-curvature="0" /></g></svg>