<?xml version="1.0" encoding="UTF-8" standalone="no"?>
<!-- Created with Inkscape (http://www.inkscape.org/) -->

<svg
   xmlns:dc="http://purl.org/dc/elements/1.1/"
   xmlns:cc="http://creativecommons.org/ns#"
   xmlns:rdf="http://www.w3.org/1999/02/22-rdf-syntax-ns#"
   xmlns:svg="http://www.w3.org/2000/svg"
   xmlns="http://www.w3.org/2000/svg"
   xmlns:sodipodi="http://sodipodi.sourceforge.net/DTD/sodipodi-0.dtd"
   xmlns:inkscape="http://www.inkscape.org/namespaces/inkscape"
   width="1920"
   height="1080"
   viewBox="0 0 507.99999 285.75001"
   version="1.1"
   id="svg8"
   sodipodi:docname="yeni.svg"
   inkscape:version="0.92.4 5da689c313, 2019-01-14"
   inkscape:export-filename="/home/trlinux/Yeni.png"
   inkscape:export-xdpi="96"
   inkscape:export-ydpi="96">
  <defs
     id="defs2" />
  <sodipodi:namedview
     id="base"
     pagecolor="#ffffff"
     bordercolor="#666666"
     borderopacity="1.0"
     inkscape:pageopacity="0.0"
     inkscape:pageshadow="2"
     inkscape:zoom="0.25"
     inkscape:cx="686.88288"
     inkscape:cy="420.99684"
     inkscape:document-units="mm"
     inkscape:current-layer="layer1"
     showgrid="false"
     inkscape:window-width="1366"
     inkscape:window-height="706"
     inkscape:window-x="0"
     inkscape:window-y="0"
     inkscape:window-maximized="1"
     units="px" />
  <metadata
     id="metadata5">
    <rdf:RDF>
      <cc:Work
         rdf:about="">
        <dc:format>image/svg+xml</dc:format>
        <dc:type
           rdf:resource="http://purl.org/dc/dcmitype/StillImage" />
        <dc:title />
      </cc:Work>
    </rdf:RDF>
  </metadata>
  <g
     inkscape:label="Layer 1"
     inkscape:groupmode="layer"
     id="layer1"
     transform="translate(0,-11.249983)">
    <g
       id="g249">
      <rect
         y="11.249983"
         x="0"
         height="285.75"
         width="508"
         id="rect1046"
         style="fill:#272822;fill-opacity:1;stroke:none;stroke-width:0.55420995;stroke-miterlimit:4;stroke-dasharray:none;stroke-opacity:1" />
      <g
         id="g198">
        <ellipse
           style="fill:#272822;fill-opacity:1;stroke:none;stroke-width:0.29235899;stroke-miterlimit:4;stroke-dasharray:none;stroke-opacity:1"
           id="path925"
           cx="441.91431"
           cy="270.29086"
           rx="44.682007"
           ry="19.83007"
           transform="rotate(-1.1561677)" />
        <ellipse
           transform="matrix(0.99978889,-0.02054691,0.01981485,0.99980367,0,0)"
           ry="19.831238"
           rx="43.881706"
           cy="266.22705"
           cx="442.35281"
           id="ellipse927"
           style="fill:#48483e;fill-opacity:1;stroke:none;stroke-width:0.28973746;stroke-miterlimit:4;stroke-dasharray:none;stroke-opacity:1" />
        <ellipse
           transform="rotate(-1.1561677)"
           ry="17.912374"
           rx="40.360966"
           cy="263.90674"
           cx="440.38104"
           id="ellipse929"
           style="fill:#272822;fill-opacity:1;stroke:none;stroke-width:0.26408598;stroke-miterlimit:4;stroke-dasharray:none;stroke-opacity:1" />
        <ellipse
           style="fill:#76715e;fill-opacity:1;stroke:none;stroke-width:0.26171798;stroke-miterlimit:4;stroke-dasharray:none;stroke-opacity:1"
           id="ellipse931"
           cx="440.7843"
           cy="260.25116"
           rx="39.638062"
           ry="17.913427"
           transform="matrix(0.99978889,-0.02054691,0.01981485,0.99980367,0,0)" />
        <path
           style="fill:#48483e;fill-opacity:1;stroke:none;stroke-width:0.26458332px;stroke-linecap:butt;stroke-linejoin:miter;stroke-opacity:1"
           d="m 423.4522,249.84556 4.03156,-3.50517 -9.04928,-6.91739 z"
           id="path939"
           inkscape:connector-curvature="0"
           sodipodi:nodetypes="cccc" />
        <path
           style="fill:#272822;fill-opacity:1;stroke:none;stroke-width:0.26458332px;stroke-linecap:butt;stroke-linejoin:miter;stroke-opacity:1"
           d="m 411.90011,245.08677 11.55209,4.75879 13.51201,-28.94467 -9.0262,-2.10629 z"
           id="path921"
           inkscape:connector-curvature="0"
           sodipodi:nodetypes="ccccc" />
        <path
           style="fill:#48483e;fill-opacity:1;stroke:none;stroke-width:0.26458332px;stroke-linecap:butt;stroke-linejoin:miter;stroke-opacity:1"
           d="m 457.35118,163.5933 26.91854,43.81363 c 0,0 0.0466,6.57939 -2.48388,12.65062 -2.53045,6.07124 -9.41673,16.89765 -16.80454,22.11655 -7.38781,5.2189 -16.935,6.86941 -23.61995,7.41674 -6.68495,0.54733 -16.23663,-2.80633 -16.23663,-2.80633 l -24.13923,-40.90512 z"
           id="path919"
           inkscape:connector-curvature="0"
           sodipodi:nodetypes="cczzzccc" />
        <path
           style="fill:#cfd0c2;fill-opacity:1;stroke:none;stroke-width:0.26458332px;stroke-linecap:butt;stroke-linejoin:miter;stroke-opacity:1"
           d="m 479.99571,200.42531 c -0.70008,22.48734 -19.0678,37.77562 -39.26775,42.55737 l 1.13392,2.36235 c 21.63559,-4.63293 40.28175,-23.4307 39.67863,-42.39818 z"
           id="path947"
           inkscape:connector-curvature="0"
           sodipodi:nodetypes="ccccc" />
        <path
           sodipodi:nodetypes="ccccc"
           inkscape:connector-curvature="0"
           id="path945"
           d="m 467.08808,179.42457 c -0.70008,22.48734 -19.0678,37.77562 -39.26775,42.55737 l 1.13392,2.36235 c 21.63559,-4.63293 40.28175,-23.4307 39.67863,-42.39818 z"
           style="fill:#cfd0c2;fill-opacity:1;stroke:none;stroke-width:0.26458332px;stroke-linecap:butt;stroke-linejoin:miter;stroke-opacity:1" />
        <path
           style="fill:#cfd0c2;fill-opacity:1;stroke:none;stroke-width:0.26458332px;stroke-linecap:butt;stroke-linejoin:miter;stroke-opacity:1"
           d="m 463.11566,172.96097 c -0.70008,22.48734 -19.0678,37.77562 -39.26775,42.55737 l 1.13392,2.36235 c 21.63559,-4.63293 40.28175,-23.4307 39.67863,-42.39818 z"
           id="path943"
           inkscape:connector-curvature="0"
           sodipodi:nodetypes="ccccc" />
        <path
           sodipodi:nodetypes="ccccc"
           inkscape:connector-curvature="0"
           id="path949"
           d="m 476.02329,193.96171 c -0.70008,22.48734 -19.0678,37.77562 -39.26775,42.55737 l 1.13392,2.36235 c 21.63559,-4.63293 40.28175,-23.4307 39.67863,-42.39818 z"
           style="fill:#cfd0c2;fill-opacity:1;stroke:none;stroke-width:0.26458332px;stroke-linecap:butt;stroke-linejoin:miter;stroke-opacity:1" />
        <path
           style="fill:#48483e;fill-opacity:1;stroke:none;stroke-width:0.26458332px;stroke-linecap:butt;stroke-linejoin:miter;stroke-opacity:1"
           d="m 423.83348,225.53415 1.14835,-7.65346 10.4744,-6.42615 25.13541,28.91517 -12.99292,11.38654 -12.70972,-11.5531 z"
           id="path47"
           inkscape:connector-curvature="0"
           sodipodi:nodetypes="ccccccc" />
        <path
           style="color:#000000;font-style:normal;font-variant:normal;font-weight:normal;font-stretch:normal;font-size:medium;line-height:normal;font-family:sans-serif;font-variant-ligatures:normal;font-variant-position:normal;font-variant-caps:normal;font-variant-numeric:normal;font-variant-alternates:normal;font-feature-settings:normal;text-indent:0;text-align:start;text-decoration:none;text-decoration-line:none;text-decoration-style:solid;text-decoration-color:#000000;letter-spacing:normal;word-spacing:normal;text-transform:none;writing-mode:lr-tb;direction:ltr;text-orientation:mixed;dominant-baseline:auto;baseline-shift:baseline;text-anchor:start;white-space:normal;shape-padding:0;clip-rule:nonzero;display:inline;overflow:visible;visibility:visible;opacity:1;isolation:auto;mix-blend-mode:normal;color-interpolation:sRGB;color-interpolation-filters:linearRGB;solid-color:#000000;solid-opacity:1;vector-effect:none;fill:#272822;fill-opacity:1;fill-rule:nonzero;stroke:none;stroke-width:0.26458332px;stroke-linecap:butt;stroke-linejoin:miter;stroke-miterlimit:4;stroke-dasharray:none;stroke-dashoffset:0;stroke-opacity:1;color-rendering:auto;image-rendering:auto;shape-rendering:auto;text-rendering:auto;enable-background:accumulate"
           d="m 436.63542,218.11516 -0.18359,0.19141 1.17382,1.13086 -7.5039,6.89648 0.17969,0.19531 7.71093,-7.08789 z"
           id="path49"
           inkscape:connector-curvature="0" />
        <path
           style="color:#000000;font-style:normal;font-variant:normal;font-weight:normal;font-stretch:normal;font-size:medium;line-height:normal;font-family:sans-serif;font-variant-ligatures:normal;font-variant-position:normal;font-variant-caps:normal;font-variant-numeric:normal;font-variant-alternates:normal;font-feature-settings:normal;text-indent:0;text-align:start;text-decoration:none;text-decoration-line:none;text-decoration-style:solid;text-decoration-color:#000000;letter-spacing:normal;word-spacing:normal;text-transform:none;writing-mode:lr-tb;direction:ltr;text-orientation:mixed;dominant-baseline:auto;baseline-shift:baseline;text-anchor:start;white-space:normal;shape-padding:0;clip-rule:nonzero;display:inline;overflow:visible;visibility:visible;opacity:1;isolation:auto;mix-blend-mode:normal;color-interpolation:sRGB;color-interpolation-filters:linearRGB;solid-color:#000000;solid-opacity:1;vector-effect:none;fill:#272822;fill-opacity:1;fill-rule:nonzero;stroke:none;stroke-width:0.26458332px;stroke-linecap:butt;stroke-linejoin:miter;stroke-miterlimit:4;stroke-dasharray:none;stroke-dashoffset:0;stroke-opacity:1;color-rendering:auto;image-rendering:auto;shape-rendering:auto;text-rendering:auto;enable-background:accumulate"
           d="m 438.38347,219.93547 -0.1836,0.18946 1.17383,1.13086 -7.50391,6.89843 0.17969,0.19336 7.71094,-7.08789 z"
           id="path51"
           inkscape:connector-curvature="0" />
        <path
           style="color:#000000;font-style:normal;font-variant:normal;font-weight:normal;font-stretch:normal;font-size:medium;line-height:normal;font-family:sans-serif;font-variant-ligatures:normal;font-variant-position:normal;font-variant-caps:normal;font-variant-numeric:normal;font-variant-alternates:normal;font-feature-settings:normal;text-indent:0;text-align:start;text-decoration:none;text-decoration-line:none;text-decoration-style:solid;text-decoration-color:#000000;letter-spacing:normal;word-spacing:normal;text-transform:none;writing-mode:lr-tb;direction:ltr;text-orientation:mixed;dominant-baseline:auto;baseline-shift:baseline;text-anchor:start;white-space:normal;shape-padding:0;clip-rule:nonzero;display:inline;overflow:visible;visibility:visible;opacity:1;isolation:auto;mix-blend-mode:normal;color-interpolation:sRGB;color-interpolation-filters:linearRGB;solid-color:#000000;solid-opacity:1;vector-effect:none;fill:#272822;fill-opacity:1;fill-rule:nonzero;stroke:none;stroke-width:0.26458332px;stroke-linecap:butt;stroke-linejoin:miter;stroke-miterlimit:4;stroke-dasharray:none;stroke-dashoffset:0;stroke-opacity:1;color-rendering:auto;image-rendering:auto;shape-rendering:auto;text-rendering:auto;enable-background:accumulate"
           d="m 440.10808,222.03704 -0.1836,0.1914 1.17383,1.13086 -7.50391,6.89649 0.17969,0.19531 7.71094,-7.08789 z"
           id="path53"
           inkscape:connector-curvature="0" />
        <path
           style="color:#000000;font-style:normal;font-variant:normal;font-weight:normal;font-stretch:normal;font-size:medium;line-height:normal;font-family:sans-serif;font-variant-ligatures:normal;font-variant-position:normal;font-variant-caps:normal;font-variant-numeric:normal;font-variant-alternates:normal;font-feature-settings:normal;text-indent:0;text-align:start;text-decoration:none;text-decoration-line:none;text-decoration-style:solid;text-decoration-color:#000000;letter-spacing:normal;word-spacing:normal;text-transform:none;writing-mode:lr-tb;direction:ltr;text-orientation:mixed;dominant-baseline:auto;baseline-shift:baseline;text-anchor:start;white-space:normal;shape-padding:0;clip-rule:nonzero;display:inline;overflow:visible;visibility:visible;opacity:1;isolation:auto;mix-blend-mode:normal;color-interpolation:sRGB;color-interpolation-filters:linearRGB;solid-color:#000000;solid-opacity:1;vector-effect:none;fill:#272822;fill-opacity:1;fill-rule:nonzero;stroke:none;stroke-width:0.26458332px;stroke-linecap:butt;stroke-linejoin:miter;stroke-miterlimit:4;stroke-dasharray:none;stroke-dashoffset:0;stroke-opacity:1;color-rendering:auto;image-rendering:auto;shape-rendering:auto;text-rendering:auto;enable-background:accumulate"
           d="m 441.85612,223.87883 -0.18359,0.19141 1.17383,1.13086 -7.50391,6.89844 0.17969,0.19336 7.71094,-7.08789 z"
           id="path55"
           inkscape:connector-curvature="0" />
        <path
           style="color:#000000;font-style:normal;font-variant:normal;font-weight:normal;font-stretch:normal;font-size:medium;line-height:normal;font-family:sans-serif;font-variant-ligatures:normal;font-variant-position:normal;font-variant-caps:normal;font-variant-numeric:normal;font-variant-alternates:normal;font-feature-settings:normal;text-indent:0;text-align:start;text-decoration:none;text-decoration-line:none;text-decoration-style:solid;text-decoration-color:#000000;letter-spacing:normal;word-spacing:normal;text-transform:none;writing-mode:lr-tb;direction:ltr;text-orientation:mixed;dominant-baseline:auto;baseline-shift:baseline;text-anchor:start;white-space:normal;shape-padding:0;clip-rule:nonzero;display:inline;overflow:visible;visibility:visible;opacity:1;isolation:auto;mix-blend-mode:normal;color-interpolation:sRGB;color-interpolation-filters:linearRGB;solid-color:#000000;solid-opacity:1;vector-effect:none;fill:#272822;fill-opacity:1;fill-rule:nonzero;stroke:none;stroke-width:0.26458332px;stroke-linecap:butt;stroke-linejoin:miter;stroke-miterlimit:4;stroke-dasharray:none;stroke-dashoffset:0;stroke-opacity:1;color-rendering:auto;image-rendering:auto;shape-rendering:auto;text-rendering:auto;enable-background:accumulate"
           d="m 443.60417,225.69915 -0.18359,0.18945 1.17382,1.13086 -7.5039,6.89844 0.17969,0.19531 7.71093,-7.08789 z"
           id="path57"
           inkscape:connector-curvature="0" />
        <path
           style="color:#000000;font-style:normal;font-variant:normal;font-weight:normal;font-stretch:normal;font-size:medium;line-height:normal;font-family:sans-serif;font-variant-ligatures:normal;font-variant-position:normal;font-variant-caps:normal;font-variant-numeric:normal;font-variant-alternates:normal;font-feature-settings:normal;text-indent:0;text-align:start;text-decoration:none;text-decoration-line:none;text-decoration-style:solid;text-decoration-color:#000000;letter-spacing:normal;word-spacing:normal;text-transform:none;writing-mode:lr-tb;direction:ltr;text-orientation:mixed;dominant-baseline:auto;baseline-shift:baseline;text-anchor:start;white-space:normal;shape-padding:0;clip-rule:nonzero;display:inline;overflow:visible;visibility:visible;opacity:1;isolation:auto;mix-blend-mode:normal;color-interpolation:sRGB;color-interpolation-filters:linearRGB;solid-color:#000000;solid-opacity:1;vector-effect:none;fill:#272822;fill-opacity:1;fill-rule:nonzero;stroke:none;stroke-width:0.26458332px;stroke-linecap:butt;stroke-linejoin:miter;stroke-miterlimit:4;stroke-dasharray:none;stroke-dashoffset:0;stroke-opacity:1;color-rendering:auto;image-rendering:auto;shape-rendering:auto;text-rendering:auto;enable-background:accumulate"
           d="m 445.32878,227.80071 -0.18359,0.19141 1.17382,1.13085 -7.5039,6.89649 0.17968,0.19531 7.71094,-7.08789 z"
           id="path59"
           inkscape:connector-curvature="0" />
        <path
           style="color:#000000;font-style:normal;font-variant:normal;font-weight:normal;font-stretch:normal;font-size:medium;line-height:normal;font-family:sans-serif;font-variant-ligatures:normal;font-variant-position:normal;font-variant-caps:normal;font-variant-numeric:normal;font-variant-alternates:normal;font-feature-settings:normal;text-indent:0;text-align:start;text-decoration:none;text-decoration-line:none;text-decoration-style:solid;text-decoration-color:#000000;letter-spacing:normal;word-spacing:normal;text-transform:none;writing-mode:lr-tb;direction:ltr;text-orientation:mixed;dominant-baseline:auto;baseline-shift:baseline;text-anchor:start;white-space:normal;shape-padding:0;clip-rule:nonzero;display:inline;overflow:visible;visibility:visible;opacity:1;isolation:auto;mix-blend-mode:normal;color-interpolation:sRGB;color-interpolation-filters:linearRGB;solid-color:#000000;solid-opacity:1;vector-effect:none;fill:#272822;fill-opacity:1;fill-rule:nonzero;stroke:none;stroke-width:0.26458332px;stroke-linecap:butt;stroke-linejoin:miter;stroke-miterlimit:4;stroke-dasharray:none;stroke-dashoffset:0;stroke-opacity:1;color-rendering:auto;image-rendering:auto;shape-rendering:auto;text-rendering:auto;enable-background:accumulate"
           d="m 447.33464,230.06047 -0.18359,0.18946 1.17382,1.13086 -7.50195,6.89843 0.17773,0.19532 7.71094,-7.08789 z"
           id="path61"
           inkscape:connector-curvature="0" />
        <path
           style="color:#000000;font-style:normal;font-variant:normal;font-weight:normal;font-stretch:normal;font-size:medium;line-height:normal;font-family:sans-serif;font-variant-ligatures:normal;font-variant-position:normal;font-variant-caps:normal;font-variant-numeric:normal;font-variant-alternates:normal;font-feature-settings:normal;text-indent:0;text-align:start;text-decoration:none;text-decoration-line:none;text-decoration-style:solid;text-decoration-color:#000000;letter-spacing:normal;word-spacing:normal;text-transform:none;writing-mode:lr-tb;direction:ltr;text-orientation:mixed;dominant-baseline:auto;baseline-shift:baseline;text-anchor:start;white-space:normal;shape-padding:0;clip-rule:nonzero;display:inline;overflow:visible;visibility:visible;opacity:1;isolation:auto;mix-blend-mode:normal;color-interpolation:sRGB;color-interpolation-filters:linearRGB;solid-color:#000000;solid-opacity:1;vector-effect:none;fill:#272822;fill-opacity:1;fill-rule:nonzero;stroke:none;stroke-width:0.26458332px;stroke-linecap:butt;stroke-linejoin:miter;stroke-miterlimit:4;stroke-dasharray:none;stroke-dashoffset:0;stroke-opacity:1;color-rendering:auto;image-rendering:auto;shape-rendering:auto;text-rendering:auto;enable-background:accumulate"
           d="m 449.08269,231.87883 -0.1836,0.19141 1.17383,1.13086 -7.50195,6.89648 0.17773,0.19532 7.71094,-7.08789 z"
           id="path63"
           inkscape:connector-curvature="0" />
        <path
           style="color:#000000;font-style:normal;font-variant:normal;font-weight:normal;font-stretch:normal;font-size:medium;line-height:normal;font-family:sans-serif;font-variant-ligatures:normal;font-variant-position:normal;font-variant-caps:normal;font-variant-numeric:normal;font-variant-alternates:normal;font-feature-settings:normal;text-indent:0;text-align:start;text-decoration:none;text-decoration-line:none;text-decoration-style:solid;text-decoration-color:#000000;letter-spacing:normal;word-spacing:normal;text-transform:none;writing-mode:lr-tb;direction:ltr;text-orientation:mixed;dominant-baseline:auto;baseline-shift:baseline;text-anchor:start;white-space:normal;shape-padding:0;clip-rule:nonzero;display:inline;overflow:visible;visibility:visible;opacity:1;isolation:auto;mix-blend-mode:normal;color-interpolation:sRGB;color-interpolation-filters:linearRGB;solid-color:#000000;solid-opacity:1;vector-effect:none;fill:#272822;fill-opacity:1;fill-rule:nonzero;stroke:none;stroke-width:0.26458332px;stroke-linecap:butt;stroke-linejoin:miter;stroke-miterlimit:4;stroke-dasharray:none;stroke-dashoffset:0;stroke-opacity:1;color-rendering:auto;image-rendering:auto;shape-rendering:auto;text-rendering:auto;enable-background:accumulate"
           d="m 450.80729,233.98235 -0.18359,0.18945 1.17383,1.13086 -7.50195,6.89844 0.17773,0.19531 7.71094,-7.08789 z"
           id="path65"
           inkscape:connector-curvature="0" />
        <path
           style="color:#000000;font-style:normal;font-variant:normal;font-weight:normal;font-stretch:normal;font-size:medium;line-height:normal;font-family:sans-serif;font-variant-ligatures:normal;font-variant-position:normal;font-variant-caps:normal;font-variant-numeric:normal;font-variant-alternates:normal;font-feature-settings:normal;text-indent:0;text-align:start;text-decoration:none;text-decoration-line:none;text-decoration-style:solid;text-decoration-color:#000000;letter-spacing:normal;word-spacing:normal;text-transform:none;writing-mode:lr-tb;direction:ltr;text-orientation:mixed;dominant-baseline:auto;baseline-shift:baseline;text-anchor:start;white-space:normal;shape-padding:0;clip-rule:nonzero;display:inline;overflow:visible;visibility:visible;opacity:1;isolation:auto;mix-blend-mode:normal;color-interpolation:sRGB;color-interpolation-filters:linearRGB;solid-color:#000000;solid-opacity:1;vector-effect:none;fill:#272822;fill-opacity:1;fill-rule:nonzero;stroke:none;stroke-width:0.26458332px;stroke-linecap:butt;stroke-linejoin:miter;stroke-miterlimit:4;stroke-dasharray:none;stroke-dashoffset:0;stroke-opacity:1;color-rendering:auto;image-rendering:auto;shape-rendering:auto;text-rendering:auto;enable-background:accumulate"
           d="m 452.64909,236.06047 -0.18359,0.19141 1.17578,1.13086 -7.50391,6.89648 0.17969,0.19532 7.70899,-7.08789 z"
           id="path67"
           inkscape:connector-curvature="0" />
        <ellipse
           style="fill:#cfd0c2;fill-opacity:1;stroke:none;stroke-width:0.26458332;stroke-opacity:1"
           id="path69"
           cx="426.21045"
           cy="225.73701"
           rx="0.78510422"
           ry="0.76839989" />
        <ellipse
           ry="0.76839989"
           rx="0.78510422"
           cy="213.97716"
           cx="435.56488"
           id="ellipse876"
           style="fill:#cfd0c2;fill-opacity:1;stroke:none;stroke-width:0.26458332;stroke-opacity:1" />
        <ellipse
           style="fill:#cfd0c2;fill-opacity:1;stroke:none;stroke-width:0.26458332;stroke-opacity:1"
           id="ellipse878"
           cx="447.49179"
           cy="249.05629"
           rx="0.78510422"
           ry="0.76839989" />
        <ellipse
           ry="0.76839989"
           rx="0.78510422"
           cy="239.83549"
           cx="457.71484"
           id="ellipse880"
           style="fill:#cfd0c2;fill-opacity:1;stroke:none;stroke-width:0.26458332;stroke-opacity:1" />
        <path
           style="fill:#76715e;fill-opacity:1;stroke:none;stroke-width:0.26499999;stroke-linecap:butt;stroke-linejoin:miter;stroke-miterlimit:4;stroke-dasharray:none;stroke-opacity:1"
           d="m 423.83348,225.53415 -8.97299,-0.85398 -14.91039,-4.34319 3.42541,-11.71726 c 0,0 2.88489,4.56343 6.0471,5.72494 3.16222,1.16152 8.23529,1.75394 12.42803,1.30295 4.19274,-0.45099 13.60559,-4.19307 13.60559,-4.19307 z"
           id="path882"
           inkscape:connector-curvature="0"
           sodipodi:nodetypes="cccczzcc" />
        <ellipse
           ry="0.77780676"
           rx="0.66922849"
           cy="-37.289803"
           cx="476.75092"
           id="ellipse884"
           style="fill:#cfd0c2;fill-opacity:1;stroke:none;stroke-width:0.24576963;stroke-opacity:1"
           transform="rotate(32.363977)" />
        <ellipse
           transform="rotate(32.363977)"
           style="fill:#cfd0c2;fill-opacity:1;stroke:none;stroke-width:0.24576963;stroke-opacity:1"
           id="ellipse886"
           cx="456.47867"
           cy="-29.584364"
           rx="0.66922849"
           ry="0.77780676" />
        <path
           style="fill:#272822;fill-opacity:1;stroke:none;stroke-width:0.26458332px;stroke-linecap:butt;stroke-linejoin:miter;stroke-opacity:1"
           d="m 399.9501,220.33698 21.40291,23.57626 26.24571,7.84301 -23.76524,-26.2221 z"
           id="path888"
           inkscape:connector-curvature="0"
           sodipodi:nodetypes="ccccc" />
        <path
           style="fill:#76715e;fill-opacity:1;stroke:none;stroke-width:0.26458332px;stroke-linecap:butt;stroke-linejoin:miter;stroke-opacity:1"
           d="m 460.17042,206.0259 5.12362,2.80853 5.50036,-0.16924 2.87991,-1.26806 2.76616,-3.44257 -10.791,-2.50565 z"
           id="path73"
           inkscape:connector-curvature="0"
           sodipodi:nodetypes="ccccccc" />
        <path
           style="fill:#272822;fill-opacity:1;stroke:none;stroke-width:0.26458332px;stroke-linecap:butt;stroke-linejoin:miter;stroke-opacity:1"
           d="m 463.34426,221.32708 1.1693,17.53957 8.01809,1.5702 -0.50115,-17.74001 -4.78481,-1.80202 z"
           id="path79"
           inkscape:connector-curvature="0"
           sodipodi:nodetypes="cccccc" />
        <path
           style="fill:#272822;fill-opacity:1;stroke:none;stroke-width:0.26458332px;stroke-linecap:butt;stroke-linejoin:miter;stroke-opacity:1"
           d="m 460.17042,206.0259 0.76841,14.9671 11.09167,1.70384 0.1603,-7.78068 -1.3964,-6.25097 z"
           id="path75"
           inkscape:connector-curvature="0"
           sodipodi:nodetypes="cccccc" />
        <path
           style="fill:#48483e;fill-opacity:1;stroke:none;stroke-width:0.26458332px;stroke-linecap:butt;stroke-linejoin:miter;stroke-opacity:1"
           d="m 470.7944,208.66519 5.64607,-4.71063 1.30294,14.43256 -5.71291,4.30972 z"
           id="path77"
           inkscape:connector-curvature="0" />
        <path
           style="fill:#48483e;fill-opacity:1;stroke:none;stroke-width:0.26458332px;stroke-linecap:butt;stroke-linejoin:miter;stroke-opacity:1"
           d="m 471.29552,222.5632 4.97789,-3.04019 1.23614,16.20322 -4.9779,4.71062 z"
           id="path81"
           inkscape:connector-curvature="0" />
        <ellipse
           style="fill:#76715e;fill-opacity:1;stroke:none;stroke-width:0.26458332;stroke-opacity:1"
           id="path907"
           cx="475.02057"
           cy="212.92479"
           rx="1.3196433"
           ry="2.3887215" />
        <ellipse
           ry="1.5917443"
           rx="0.87935525"
           cy="212.914"
           cx="475.25443"
           id="ellipse909"
           style="fill:#cfd0c2;fill-opacity:1;stroke:none;stroke-width:0.17630731;stroke-opacity:1" />
        <path
           style="fill:#272822;fill-opacity:1;stroke:none;stroke-width:0.26458332px;stroke-linecap:butt;stroke-linejoin:miter;stroke-opacity:1"
           d="m 464.51356,238.86665 -15.33459,18.40818 12.89577,3.40769 6.40001,-10.87721 4.0569,-9.36846 -2.79959,-1.43644 z"
           id="path911"
           inkscape:connector-curvature="0"
           sodipodi:nodetypes="ccccccc" />
        <path
           style="fill:#48483e;fill-opacity:1;stroke:none;stroke-width:0.26458332px;stroke-linecap:butt;stroke-linejoin:miter;stroke-opacity:1"
           d="m 462.07474,260.68252 5.10383,-5.61898 10.33098,-19.33731 -3.37323,1.66966 -1.60467,3.04096 -4.19319,8.11845 z"
           id="path913"
           inkscape:connector-curvature="0"
           sodipodi:nodetypes="ccccccc" />
        <ellipse
           transform="matrix(0.77066718,-0.63723787,0.68292503,0.73048846,0,0)"
           ry="20.452925"
           rx="35.220734"
           cy="417.62399"
           cx="187.47868"
           id="ellipse917"
           style="fill:#76715e;fill-opacity:1;stroke:none;stroke-width:0.29262954;stroke-miterlimit:4;stroke-dasharray:none;stroke-opacity:1" />
        <ellipse
           style="fill:#ffffff;fill-opacity:1;stroke:none;stroke-width:0.26532623;stroke-miterlimit:4;stroke-dasharray:none;stroke-opacity:1"
           id="path915"
           cx="185.86644"
           cy="416.95001"
           rx="31.953596"
           ry="18.297977"
           transform="matrix(0.77358806,-0.63368881,0.68633242,0.72728798,0,0)" />
        <path
           inkscape:connector-curvature="0"
           id="path4487"
           d="m 412.62803,196.42082 c 0.0545,-0.0221 0.36799,-0.28536 0.69688,-0.58517 0.52681,-0.48037 0.64627,-0.56763 1.00422,-0.7344 0.22347,-0.10403 0.43502,-0.21565 0.47018,-0.24792 0.0354,-0.032 -0.0468,-0.0851 -0.18194,-0.11728 -0.57808,-0.13781 -1.30863,-0.38241 -1.55627,-0.52103 -0.39572,-0.22151 -1.21451,-0.12381 -0.87722,0.10467 0.13332,0.0903 0.23487,0.10126 0.93146,0.10094 0.22354,-1.1e-4 0.3191,0.0458 0.43732,0.21028 0.24504,0.34089 0.0271,0.82915 -0.6472,1.44963 -0.41534,0.38266 -0.43231,0.40283 -0.27741,0.34026 z m 4.21131,4.78684 c 0.50832,-0.46661 0.82581,-0.87763 1.41975,-1.83769 0.4526,-0.73174 0.83244,-1.69849 1.18191,-3.00807 0.10725,-0.4019 0.22886,-0.76174 0.27027,-0.79962 0.0553,-0.0511 0.20645,0.11266 0.57651,0.62461 0.34727,0.48044 0.56279,0.71825 0.70162,0.77415 l 0.2004,0.0807 0.009,-0.74066 c 0.016,-1.38405 0.5673,-3.34705 1.11488,-3.96973 0.45195,-0.5138 0.50623,-0.22008 0.14638,0.7915 -0.26915,0.75665 -0.2781,0.99977 -0.0486,1.32068 0.15785,0.22089 0.22903,0.90484 0.17568,1.68983 -0.0692,1.01842 -0.071,1.94509 -0.004,2.12406 0.0683,0.18266 0.45373,0.25115 0.89019,0.15825 l 0.26415,-0.0562 0.0585,-0.32467 c 0.0712,-0.39514 0.31723,-1.04541 0.40971,-1.08282 0.16449,-0.0665 0.49235,0.22788 0.73707,0.66195 l 0.25305,0.44865 0.36839,-0.0969 c 0.20262,-0.0533 0.55825,-0.18617 0.79029,-0.2953 0.34077,-0.16025 0.42459,-0.21842 0.43588,-0.30253 0.007,-0.0572 -0.0928,-0.33443 -0.22332,-0.61596 -0.2259,-0.48713 -0.23007,-0.5165 -0.0868,-0.60804 0.43864,-0.2802 0.60951,-0.27944 1.26348,0.005 0.73052,0.31831 1.14559,0.34777 1.76326,0.12514 l 0.37461,-0.13503 -0.32955,-0.35422 -0.32954,-0.35421 0.196,-0.0749 c 0.19242,-0.0734 0.53784,-0.0977 1.80286,-0.12625 0.73928,-0.0167 1.21901,-0.15138 1.61829,-0.45435 0.15708,-0.11927 0.2923,-0.23588 0.30028,-0.25933 0.007,-0.0235 -0.14691,-0.035 -0.34428,-0.0258 -0.19743,0.01 -0.37514,-0.005 -0.39494,-0.0334 -0.0195,-0.0278 -0.22023,-0.0438 -0.44542,-0.036 -0.49436,0.0169 -0.65912,-0.0188 -2.79878,-0.60688 -1.99946,-0.54954 -2.90824,-0.87166 -3.81,-1.35046 -1.57538,-0.83641 -1.95798,-1.24861 -2.26274,-2.43791 -0.1893,-0.73881 -0.21004,-0.78011 -0.8159,-1.62549 -0.52924,-0.73869 -0.69215,-0.91698 -1.09625,-1.20103 -0.53018,-0.37275 -0.96727,-0.61374 -0.99053,-0.5462 -0.015,0.0435 0.45848,1.0524 0.80095,1.70672 0.0942,0.1802 0.15225,0.3452 0.12878,0.36673 -0.12168,0.11209 -0.87606,0.11095 -1.61191,-0.002 l -0.50414,-0.0774 -0.0223,0.6466 c -0.0123,0.35561 -0.0354,0.76395 -0.0514,0.90738 -0.0328,0.29427 -0.19635,0.84904 -0.27024,0.91685 -0.0275,0.0239 -0.13984,0.0306 -0.25124,0.0132 -0.16844,-0.0262 -0.30994,-0.17116 -0.84191,-0.86229 -0.5796,-0.75292 -0.6552,-0.82698 -0.80751,-0.79079 -0.21482,0.0508 -0.31035,-0.0863 -0.35979,-0.51649 -0.0217,-0.18936 -0.0759,-0.39445 -0.12033,-0.45577 -0.11315,-0.15604 -0.41656,-0.30491 -0.48815,-0.23919 -0.0333,0.0298 -0.0496,0.069 -0.0371,0.0861 0.0128,0.0168 -0.0327,0.19827 -0.1003,0.40223 l -0.12294,0.3708 -0.92702,0.80781 c -0.50988,0.44429 -1.15359,0.99697 -1.43053,1.22815 l -0.50356,0.42027 0.18152,0.2525 0.1815,0.25249 -0.45297,0.38219 c -0.2492,0.21015 -0.4474,0.38993 -0.44065,0.39934 0.006,0.01 0.35148,0.0126 0.76599,0.007 0.41449,-0.005 1.09452,-0.003 1.51117,0.005 l 0.75755,0.0158 0.13557,0.27995 0.13554,0.27993 1.23844,-0.59894 c 1.1597,-0.56087 1.49304,-0.69314 1.29611,-0.51433 -0.0449,0.0418 -0.54283,0.40746 -1.10564,0.81409 -1.45543,1.05154 -1.45424,1.0502 -0.99563,1.1328 0.1401,0.0253 0.31344,0.0757 0.38515,0.11203 0.12948,0.0657 0.12837,0.068 -0.16581,0.33803 l -0.29622,0.27184 0.11697,0.11009 c 0.16011,0.14881 0.40976,0.98055 0.62013,2.06496 0.34948,1.80151 0.34937,2.94454 -4e-4,4.02114 l -0.13157,0.40502 z m -5.46383,-8.39089 c 0.73559,-0.67018 0.74147,-0.67901 0.46549,-0.77575 -0.0805,-0.0281 -0.38296,-0.32002 -0.67203,-0.64866 -0.72961,-0.82936 -0.84811,-0.84027 -0.41964,-0.0387 0.18993,0.35541 0.36413,0.74262 0.38711,0.86049 0.0487,0.25 -0.0933,0.80232 -0.24166,0.93999 -0.0565,0.0523 -0.12506,0.1386 -0.15322,0.19075 -0.0278,0.0525 0.25747,-0.18512 0.63391,-0.52815 z m 1.24133,-4.27919 c 0.60097,-0.67399 0.77884,-0.84115 0.97355,-0.91532 0.22534,-0.0858 0.46075,0.0435 0.44779,0.24584 -0.007,0.1138 -0.0525,0.17079 -0.25057,0.31616 -0.22979,0.1686 -0.23527,0.17826 -0.11006,0.19733 0.25976,0.0396 0.52241,-0.14181 0.80321,-0.55481 l 0.17258,-0.25389 -0.22409,-0.0741 c -0.20984,-0.0694 -0.22629,-0.0935 -0.25769,-0.37712 -0.0334,-0.3011 -0.0346,-0.3026 -0.2146,-0.23912 -0.26879,0.0949 -0.52571,-0.0124 -0.73826,-0.30799 -0.21723,-0.30213 -0.25887,-0.28502 -0.58475,0.24079 -0.42755,0.68985 -0.54355,1.25712 -0.35007,1.71191 l 0.11049,0.25972 z m 1.56886,-2.37599 c 0.11465,-0.0269 0.37152,-0.11483 0.57095,-0.19532 0.46941,-0.18946 0.58325,-0.19079 0.71843,-0.009 0.12014,0.16191 0.055,0.30035 -0.35559,0.75664 l -0.18419,0.20438 0.28288,0.009 0.28285,0.009 -0.14485,0.35574 -0.14485,0.3557 0.47387,-0.0673 c 0.74285,-0.10553 1.10854,0.1181 1.24946,0.76395 0.10116,0.46388 0.15251,0.50509 0.40322,0.32402 l 0.21483,-0.15512 0.11208,0.2481 c 0.0617,0.1364 0.20859,0.41531 0.32652,0.61975 l 0.21444,0.37173 0.0158,-0.54954 c 0.009,-0.30224 -0.005,-0.75555 -0.032,-1.00737 -0.0262,-0.25183 -0.0437,-0.47331 -0.0389,-0.49223 0.0267,-0.10339 0.31923,-0.0868 0.80239,0.0456 0.29938,0.0821 0.60237,0.13994 0.67331,0.1287 0.11066,-0.0176 0.10661,-0.0517 -0.0288,-0.24114 -0.29912,-0.41864 -0.69119,-2.23774 -0.58168,-2.69912 0.0949,-0.39954 0.28962,-0.5053 0.82497,-0.44793 0.62604,0.0671 2.37502,0.11659 2.73941,0.0775 l 0.28881,-0.0309 -0.1588,-0.22655 c -0.33363,-0.47641 -1.03876,-0.85998 -2.11267,-1.14907 -1.28861,-0.34695 -2.21142,-0.38272 -3.47525,-0.13473 -0.74813,0.14681 -0.7763,0.14605 -0.6452,-0.0174 0.12549,-0.15653 0.0994,-0.15189 -0.30942,0.0546 -0.33731,0.17022 -0.61682,0.36498 -1.14287,0.79628 -0.81007,0.66414 -1.099,0.99251 -1.28129,1.45644 -0.10563,0.26875 -0.10019,0.32447 0.0584,0.59519 0.15771,0.26922 0.19553,0.29392 0.38336,0.24969 z m 0.65475,0.42735 c 0.31862,-0.29242 0.32237,-0.4035 0.0117,-0.34519 -0.18639,0.035 -0.36945,0.15235 -0.25065,0.16074 0.036,0.002 0.0343,0.0942 -0.003,0.20371 -0.0377,0.10958 -0.062,0.20821 -0.054,0.21928 0.009,0.0108 0.14134,-0.0962 0.29634,-0.23853 z m 5.73014,-1.01204 c 0.12924,0.0653 0.38392,0.22859 0.56589,0.36287 0.18201,0.13425 0.42772,0.28204 0.54606,0.3284 0.11833,0.0464 0.42677,0.28422 0.68536,0.52866 0.52467,0.49669 1.10455,1.42107 1.30622,2.08493 0.0612,0.20139 0.18199,0.53382 0.26847,0.73879 l 0.15727,0.37268 0.93122,0.20008 c 1.72014,0.36958 2.75519,0.75393 3.82737,1.42123 0.9301,0.57888 0.86897,0.56643 1.7314,0.35285 1.102,-0.27285 5.03797,-1.76388 6.22604,-2.35852 3.78927,-1.89655 5.96572,-1.85248 9.75341,0.19753 1.92922,1.04414 2.43839,1.28827 2.87208,1.377 0.78876,0.16135 0.94328,0.0661 0.39737,-0.24499 -0.5088,-0.2899 -1.47642,-1.06892 -2.09645,-1.68781 -0.41973,-0.419 -0.54462,-0.58477 -0.59574,-0.7909 -0.0356,-0.14345 -0.0328,-0.28154 0.006,-0.30693 0.0391,-0.0252 0.39893,0.0505 0.8,0.16868 0.71562,0.21083 1.62322,0.33715 2.35495,0.32775 0.20313,-0.002 0.35391,-0.0261 0.3351,-0.0523 -0.0183,-0.0267 -0.43036,-0.2051 -0.91462,-0.39767 -1.16486,-0.46326 -2.23047,-0.97611 -3.24205,-1.56028 -0.94673,-0.54674 -1.08154,-0.61211 -1.94233,-0.94175 -0.62856,-0.2407 -0.77744,-0.32608 -0.61518,-0.35277 0.0464,-0.007 0.66841,0.12727 1.38227,0.29978 2.24524,0.54257 5.47777,0.6882 6.61964,0.29823 0.19476,-0.0665 0.36062,-0.13972 0.36851,-0.16268 0.007,-0.0232 -0.29866,-0.0253 -0.68125,-0.005 -0.38261,0.0201 -0.90836,-0.003 -1.16835,-0.051 -0.26,-0.0482 -0.5688,-0.0869 -0.68625,-0.0858 -0.9884,0.009 -3.59411,-0.97813 -3.83039,-1.45041 -0.0742,-0.14835 -0.0657,-0.15096 1.55992,-0.47889 1.55715,-0.31409 2.94529,-0.69667 3.12445,-0.86109 0.0453,-0.0422 0.33449,-0.20161 0.64182,-0.35497 0.59681,-0.29776 0.89226,-0.50356 0.54251,-0.37795 -1.0268,0.36878 -3.54034,0.90346 -4.6968,0.99911 -1.84993,0.153 -4.86721,-0.20007 -4.51018,-0.52775 0.10563,-0.097 0.73889,-0.3702 2.42792,-1.04757 1.76401,-0.70742 2.8997,-1.24828 3.94979,-1.88097 0.71161,-0.42873 0.84132,-0.526 1.48241,-1.11157 0.83718,-0.76469 1.02402,-1.04575 0.38203,-0.57646 -1.37077,1.00328 -2.33943,1.53079 -3.91164,2.13014 -3.12866,1.19272 -7.421,1.81691 -10.29151,1.49664 -0.51946,-0.058 -0.83953,-0.25963 -0.66555,-0.41932 0.0398,-0.0365 0.48992,-0.40109 1.00042,-0.81029 0.97712,-0.7832 2.34593,-2.04699 2.49177,-2.30061 0.0613,-0.10685 -0.0194,-0.0528 -0.33145,0.22148 -1.13177,0.99483 -3.14192,2.06071 -4.48902,2.38029 -0.38501,0.0913 -0.64085,0.0996 -0.96128,0.031 -0.47498,-0.10168 -0.43626,-0.11643 -1.29991,0.49634 -1.15598,0.82017 -2.35001,1.56008 -3.41621,2.1169 -1.91749,1.00144 -3.15215,1.43912 -5.00524,1.77441 -1.28928,0.23325 -1.78572,0.27365 -2.98954,0.2433 -0.36083,-0.01 -0.66942,-0.004 -0.68575,0.0108 -0.0457,0.0427 0.0333,0.10731 0.28887,0.2365 z m -0.56796,-3.57904 c 0.63424,0.0107 0.80199,0.0527 1.81147,0.45547 0.78994,0.31523 1.21737,0.61244 1.85079,1.28688 0.61596,0.65577 0.66411,0.67221 1.396,0.47544 0.51855,-0.13942 1.62651,-0.58362 1.90974,-0.76561 0.15755,-0.10116 0.1607,-0.1146 0.0439,-0.18505 -0.0692,-0.0418 -0.31292,-0.29948 -0.54253,-0.57178 -0.51494,-0.61284 -0.657,-1.04632 -0.62642,-1.91179 0.0337,-0.95444 0.35889,-1.6796 1.02886,-2.2945 0.44349,-0.40704 0.70285,-0.53558 1.15867,-0.57423 0.51256,-0.0435 0.87061,0.0756 1.14663,0.38133 0.41261,0.45704 0.34505,0.21238 -0.11059,-0.40012 -0.46475,-0.62482 -0.41085,-0.58649 -1.69361,-1.20458 -0.3393,-0.16348 -0.70373,-0.40279 -0.84369,-0.55403 l -0.24635,-0.26625 0.17097,-0.10758 c 0.80547,-0.50671 1.80359,-0.54195 3.34046,-0.1179 0.83166,0.22946 0.83484,0.22961 0.72568,0.0302 -0.17063,-0.3118 -0.76827,-0.81633 -1.16896,-0.98671 -0.54221,-0.23065 -0.9912,-0.29211 -2.31175,-0.31644 -1.2431,-0.0229 -1.42354,-0.08 -1.23767,-0.39178 0.16123,-0.27035 1.30637,-1.24021 1.8266,-1.54679 0.94113,-0.55474 2.04211,-0.87728 3.05435,-0.8948 0.36444,-0.006 0.5559,-0.0399 0.53978,-0.0944 -0.0338,-0.11445 -0.79108,-0.25692 -1.26644,-0.23829 -0.50444,0.0198 -2.56148,0.25891 -3.62003,0.4208 -1.59081,0.24332 -1.85858,0.0977 -1.24327,-0.67592 0.29899,-0.37593 1.19303,-1.08812 2.02972,-1.61684 0.80997,-0.51186 2.34646,-1.2648 2.87446,-1.40861 0.23384,-0.0636 0.43125,-0.13345 0.43868,-0.15505 0.007,-0.0214 -0.16345,-0.057 -0.37965,-0.0788 -1.24554,-0.12525 -3.66496,0.9698 -5.81493,2.63191 -0.55642,0.43018 -0.56516,0.43446 -0.64656,0.32122 -0.30882,-0.42966 0.44815,-1.85136 1.52307,-2.86049 0.2072,-0.19445 0.45186,-0.44424 0.54378,-0.555 l 0.16709,-0.20142 -0.2142,0.1359 c -0.11768,0.0748 -0.72102,0.60219 -1.34048,1.17215 -1.04449,0.96112 -1.16053,1.08088 -1.59902,1.64993 -0.58648,0.76388 -1.09923,1.58825 -1.28427,2.06471 -0.23979,0.61748 -0.33268,1.1595 -0.6727,3.92555 -0.1809,1.47163 -0.37459,2.91325 -0.4304,3.20359 -0.13802,0.7179 -0.54222,1.9432 -0.78081,2.36703 -0.10772,0.19137 -0.18069,0.36903 -0.16216,0.39482 0.018,0.0263 0.31325,0.0515 0.65487,0.0571 z"
           style="fill:#272822;fill-opacity:1;stroke-width:0.06472353" />
        <ellipse
           ry="0.77780676"
           rx="0.66922849"
           cy="453.88702"
           cx="76.700279"
           id="ellipse968"
           style="fill:#cfd0c2;fill-opacity:1;stroke:none;stroke-width:0.24576963;stroke-opacity:1"
           transform="rotate(-51.52626)" />
        <ellipse
           transform="rotate(-51.52626)"
           style="fill:#cfd0c2;fill-opacity:1;stroke:none;stroke-width:0.24576963;stroke-opacity:1"
           id="ellipse970"
           cx="85.385056"
           cy="472.33331"
           rx="0.66922849"
           ry="0.77780676" />
        <ellipse
           ry="0.77780676"
           rx="0.66922849"
           cy="502.4035"
           cx="80.946365"
           id="ellipse972"
           style="fill:#cfd0c2;fill-opacity:1;stroke:none;stroke-width:0.24576963;stroke-opacity:1"
           transform="rotate(-51.52626)" />
        <ellipse
           transform="rotate(-51.52626)"
           style="fill:#cfd0c2;fill-opacity:1;stroke:none;stroke-width:0.24576963;stroke-opacity:1"
           id="ellipse974"
           cx="72.61879"
           cy="480.00345"
           rx="0.66922849"
           ry="0.77780676" />
      </g>
      <path
         sodipodi:nodetypes="ccsccc"
         inkscape:connector-curvature="0"
         id="path1048"
         d="M 0,11.249983 409.6308,208.52367 c 0,0 18.39034,5.96172 37.21065,-13.45706 18.82032,-19.41877 7.845,-29.89533 7.845,-29.89533 L 382.35598,11.249983 Z"
         style="opacity:0.25;fill:#e9ddaf;stroke:none;stroke-width:0.26458332px;stroke-linecap:butt;stroke-linejoin:miter;stroke-opacity:1" />
    </g>
  </g>
</svg>
