<?xml version="1.0" encoding="UTF-8" standalone="no"?>
<!-- Created with Inkscape (http://www.inkscape.org/) -->

<svg
   xmlns:dc="http://purl.org/dc/elements/1.1/"
   xmlns:cc="http://creativecommons.org/ns#"
   xmlns:rdf="http://www.w3.org/1999/02/22-rdf-syntax-ns#"
   xmlns:svg="http://www.w3.org/2000/svg"
   xmlns="http://www.w3.org/2000/svg"
   xmlns:sodipodi="http://sodipodi.sourceforge.net/DTD/sodipodi-0.dtd"
   xmlns:inkscape="http://www.inkscape.org/namespaces/inkscape"
   version="1.1"
   id="svg2"
   xml:space="preserve"
   width="264"
   height="84"
   viewBox="0 0 263.99998 84"
   sodipodi:docname="logo.svg"
   inkscape:version="0.92.4 5da689c313, 2019-01-14"
   inkscape:export-filename="/home/trlinux/milis-gtk-theme/playmount-milis/milis-acik/logo.png"
   inkscape:export-xdpi="96"
   inkscape:export-ydpi="96"><metadata
     id="metadata8"><rdf:RDF><cc:Work
         rdf:about=""><dc:format>image/svg+xml</dc:format><dc:type
           rdf:resource="http://purl.org/dc/dcmitype/StillImage" /><dc:title></dc:title></cc:Work></rdf:RDF></metadata><defs
     id="defs6"><clipPath
       clipPathUnits="userSpaceOnUse"
       id="clipPath18"><path
         d="M 0,800 H 800 V 0 H 0 Z"
         id="path16"
         inkscape:connector-curvature="0" /></clipPath><clipPath
       clipPathUnits="userSpaceOnUse"
       id="clipPath3426"><path
         d="M 0,800 H 800 V 0 H 0 Z"
         id="path3424"
         inkscape:connector-curvature="0" /></clipPath></defs><sodipodi:namedview
     pagecolor="#ffffff"
     bordercolor="#666666"
     borderopacity="1"
     objecttolerance="10"
     gridtolerance="10"
     guidetolerance="10"
     inkscape:pageopacity="0"
     inkscape:pageshadow="2"
     inkscape:window-width="1364"
     inkscape:window-height="704"
     id="namedview4"
     showgrid="false"
     inkscape:zoom="1.28"
     inkscape:cx="132.5165"
     inkscape:cy="-9.5638818"
     inkscape:window-x="0"
     inkscape:window-y="0"
     inkscape:window-maximized="0"
     inkscape:current-layer="g10" /><g
     id="g10"
     inkscape:groupmode="layer"
     inkscape:label="14669-NPP3OF"
     transform="matrix(1.3333333,0,0,-1.3333333,0,84)"><path
       style="fill:#272822;fill-opacity:1;stroke-width:0.1299561"
       d="m 115.11803,1.696558 c -0.0631,0.0817 -0.17558,0.702048 -0.24998,1.378542 -0.11933,1.083738 -0.18583,1.305755 -0.56041,1.867299 -0.23381,0.350528 -0.43131,0.696665 -0.43885,0.769191 -0.007,0.07254 0.24532,0.04367 0.56198,-0.06415 1.35373,-0.460932 3.19406,-0.966344 3.92038,-1.076644 1.16061,-0.176245 2.5393,-1.149921 1.47707,-1.043149 -0.41989,0.04218 -0.63332,0.137594 -1.95851,0.875371 -0.42525,0.236738 -0.69161,0.28756 -1.21913,0.232589 -1.0934,-0.113947 -1.57665,-0.87947 -1.43468,-2.272735 0.0866,-0.858735 0.0817,-0.898783 -0.0979,-0.666309 z M 98.297806,0.91150697 c -0.1093,1.04909103 0.0424,1.83531003 0.67811,3.51548103 0.48454,1.280492 1.539874,2.741379 3.283614,4.545565 0.53517,0.5537215 0.96557,1.076544 0.95642,1.161838 -0.0121,0.114519 -0.60012,0.09517 -2.24617,-0.07386 C 99.425116,9.9018575 98.577436,9.8695925 98.210396,9.9553285 l -0.52985,0.1237495 1.34609,0.820257 c 2.515374,1.532804 5.076904,4.266282 5.180074,5.527842 0.0851,1.041137 -0.55866,0.776886 -1.73452,-0.711908 -0.87949,-1.113603 -1.30966,-1.38935 -2.33675,-1.497894 -0.706734,-0.0748 -2.100314,-0.748577 -3.442714,-1.664801 -1.74157,-1.188661 -3.442739,-2.205455 -3.899329,-2.330596 -0.46599,-0.127715 -1.32555,0.205203 -1.9854,0.768931 l -0.39934,0.341153 0.48587,0.417496 c 0.59135,0.508119 1.31919,1.48076 1.212,1.61962 -0.19064,0.246964 -1.35623,0.271557 -2.62045,0.0553 l -1.30686,-0.223529 -0.52294,0.496055 c -0.2876,0.272818 -0.72006,0.794785 -0.96098,1.159915 -0.3538,0.536217 -0.40634,0.688658 -0.27319,0.792724 0.0906,0.07087 0.79178,0.268063 1.55808,0.43822 1.32596,0.294442 1.38792,0.322173 1.28354,0.574128 -0.31947,0.771154 -0.64604,0.951214 -2.41483,1.331343 -1.97589,0.424634 -2.82005,0.831731 -3.58612,1.729351 l -0.46463,0.544414 1.27879,0.0391 1.27877,0.0391 -0.23527,0.289517 c -0.23095,0.284128 -0.84396,0.676303 -3.19905,2.046583 -1.37636,0.800806 -2.04168,1.456116 -2.24432,2.210546 -0.0797,0.29691 -0.12231,0.56776 -0.0947,0.60189 0.0277,0.0341 0.34391,-0.11714 0.70268,-0.33619 0.3588,-0.21904 0.72463,-0.39074 0.81297,-0.38153 0.0883,0.009 0.49968,-0.18519 0.91408,-0.432 0.90974,-0.54182 1.28904,-0.6771 6.4431,-2.297824 4.8163,-1.514518 7.138459,-2.12366 9.735479,-2.553796 4.536884,-0.751453 6.023304,-0.70494 8.790904,0.275018 1.71932,0.608783 1.83474,0.632069 4.54289,0.916652 2.36604,0.248856 3.00405,0.271675 4.29563,0.155071 1.6947,-0.152989 2.9699,-0.351659 2.88993,-0.450232 -0.0515,-0.06352 -2.80842,-0.667341 -4.66381,-1.02148 -0.51085,-0.09754 -0.92469,-0.216909 -0.91964,-0.265353 0.0262,-0.251541 1.46329,-1.048797 3.07153,-1.70402 l 1.10179,-0.448894 -1.14694,-0.731766 c -0.6308,-0.402456 -1.33786,-0.874158 -1.57125,-1.048201 -0.47877,-0.357038 -1.18805,-1.13773 -1.17216,-1.290221 0.006,-0.05531 0.21001,-0.181505 0.45386,-0.280407 0.3689,-0.149586 0.90474,-0.140657 3.18849,0.05314 2.48808,0.211125 2.76817,0.212231 2.99151,0.01174 0.3154,-0.283015 0.74954,-0.233918 1.63485,0.184821 0.38973,0.184349 0.87002,0.351662 1.06733,0.371816 0.50241,0.0512 1.35368,-0.107047 1.36909,-0.254722 0.007,-0.06774 -0.0325,-0.127897 -0.0879,-0.133664 -0.0554,-0.0058 -0.30237,-0.251812 -0.54882,-0.546739 l -0.44815,-0.536233 0.2784,-1.865994 c 0.1531,-1.0263035 0.36174,-2.31299 0.46363,-2.859309 l 0.18528,-0.993308 -0.80989,-0.0844 -0.80991,-0.0844 0.15904,-0.898041 c 0.0874,-0.49394 0.13426,-0.900638 0.10405,-0.903792 -0.0303,-0.0035 -0.69217,0.358227 -1.47084,0.803066 -0.77866,0.444832 -2.0776,1.16186 -2.88656,1.593389 l -1.47076,0.784592 -0.77297,-0.163109 -0.77292,-0.163118 -1.25534,1.9668765 c -1.17555,1.8418135 -1.56667,2.3395045 -1.52078,1.9352185 0.01,-0.09306 0.28365,-1.020838 0.60685,-2.0619205 0.83587,-2.6922565 0.83607,-2.6895255 -0.18858,-2.2945525 -0.31308,0.120676 -0.7357,0.248921 -0.93912,0.284992 -0.36722,0.0651 -0.3694,0.06121 -0.30618,-0.545736 l 0.0637,-0.611298 -0.42512,0.0046 C 110.6833,6.598877 108.6783,5.952391 106.28318,4.987357 102.30431,3.384228 100.202,2.132207 98.887396,0.58286897 L 98.392836,0 Z M 124.13125,4.318052 c -0.16723,1.51263 -0.16216,1.528509 0.54102,1.342343 0.20501,-0.05439 1.31746,-0.05479 2.47215,-8.22e-4 2.91422,0.136112 3.1598,0.02266 0.86989,-0.401798 -1.01523,-0.188202 -2.05904,-0.427906 -2.31956,-0.532681 -0.5526,-0.222252 -1.29827,-0.977456 -1.26909,-1.2853 0.0121,-0.117041 -0.0157,-0.284161 -0.0593,-0.371112 -0.0437,-0.08696 -0.14954,0.475293 -0.2351,1.249433 z m 5.50863,6.000644 c 0.0958,1.3743 0.0649,1.74566 -0.16936,2.032989 -0.271,0.332454 -0.95687,0.440115 -1.30446,0.204733 -0.19535,-0.132293 -0.21424,-0.242693 -0.10444,-0.61149 0.12734,-0.427895 0.11977,-0.444275 -0.15376,-0.332624 -0.56726,0.231559 -0.73343,0.708288 -0.50818,1.457824 l 0.13849,0.460754 0.56288,-0.156066 c 0.52699,-0.146107 0.60255,-0.137169 1.18413,0.140262 0.61731,0.294475 0.62261,0.2947 0.84823,0.03482 0.33714,-0.388402 1.02326,-0.542957 1.97163,-0.444127 0.96922,0.101002 1.01697,0.03812 0.67004,-0.882663 -0.45517,-1.208103 -1.27785,-1.95219 -2.48261,-2.2454965 l -0.68805,-0.167499 z m 1.38446,4.262873 c -0.16854,0.150793 -0.49584,0.519033 -0.72736,0.818283 -0.5449,0.704366 -0.75914,0.826312 -1.35208,0.769564 -0.52644,-0.05028 -0.65715,-0.27071 -0.71496,-1.205081 l -0.0259,-0.418798 -0.55506,0.289492 -0.555,0.289484 -0.37863,-0.542917 -0.37863,-0.542919 -0.77815,0.575274 c -1.2198,0.901841 -2.3271,1.044034 -3.78326,0.485842 -1.04587,-0.400935 -1.21936,-0.391764 -1.36343,0.07206 l -0.12345,0.397271 -0.66966,-0.153009 c -0.36828,-0.08417 -1.16095,-0.234071 -1.76146,-0.333165 l -1.09185,-0.180153 0.98081,0.618549 c 0.53948,0.340207 1.40066,0.821486 1.91378,1.069518 0.51313,0.248025 0.95383,0.472103 0.97935,0.497964 0.13949,0.141359 -0.44804,0.432867 -1.6111,0.799294 -0.72072,0.227062 -1.40393,0.484353 -1.51825,0.57175 -0.17841,0.136376 -0.10776,0.169502 0.49831,0.233668 1.33933,0.141875 5.43163,1.719229 6.07185,2.340449 0.55442,0.537991 0.37827,0.859989 -0.74618,1.363807 -1.31497,0.589189 -4.73477,2.386259 -5.3564,2.814759 l -0.49272,0.33961 0.71896,0.0801 c 1.5113,0.16862 3.5589,-0.1577 6.1346,-0.97773 3.09072,-0.98402 4.91288,-1.921628 6.8621,-3.530961 1.15389,-0.952701 1.2089,-0.981685 1.2599,-0.663977 0.0489,0.304252 0.09,0.271672 0.48861,-0.387242 0.32884,-0.543492 0.50259,-1.052661 0.71046,-2.08185 0.32014,-1.584835 0.26595,-2.250293 -0.24025,-2.95136 -0.29327,-0.406159 -0.40621,-0.461391 -1.20604,-0.590014 -0.79535,-0.127864 -0.91275,-0.114852 -1.1889,0.132306 z m -2.03218,0.22501 c -0.0685,0.657524 0.12857,0.783161 0.61262,0.390487 0.29039,-0.235607 0.4229,-0.557934 0.18142,-0.44135 -0.0729,0.03521 -0.2387,-0.06683 -0.36838,-0.226664 -0.12967,-0.159862 -0.26487,-0.293693 -0.30041,-0.297396 -0.0355,-0.0034 -0.0919,0.255002 -0.12525,0.574923 z m -9.04446,7.173737 c -0.36611,0.06524 -1.15114,0.15594 -1.74449,0.20156 -0.59335,0.04561 -1.33287,0.143885 -1.64334,0.218322 -0.31046,0.07445 -1.33506,0.140352 -2.27691,0.146449 -1.91218,0.01239 -4.71619,-0.387231 -6.32112,-0.900862 -0.48682,-0.155792 -1.32828,-0.392027 -1.86991,-0.52497 l -0.98483,-0.241706 -2.14038,0.766558 c -3.953684,1.415968 -6.630674,2.090618 -9.898743,2.494658 -2.835,0.3505 -2.69577,0.29945 -3.94436,1.44621 -1.59547,1.4653 -6.34409,7.26452 -7.51148,9.17331 -3.72347,6.0881 -7.94689,8.34358 -18.92666,10.10757 -5.59244,0.89849 -7.01061,1.17008 -7.99923,1.53196 -1.79803,0.65816 -1.91687,0.92607 -0.30564,0.6889 1.50162,-0.22103 4.77618,-0.39204 7.09465,-0.37051 1.56964,0.0146 2.11222,0.064 2.58867,0.23562 0.3315,0.11944 0.58035,0.27364 0.55294,0.34265 -0.0274,0.069 -0.85219,0.36694 -1.83288,0.66204 -1.74981,0.52656 -3.7096,1.34893 -5.08496,2.13374 -0.38179,0.21786 -0.62549,0.40325 -0.5416,0.41201 0.0839,0.009 1.19639,-0.23092 2.47225,-0.53258 3.06919,-0.72563 6.04064,-1.2919 9.04047,-1.72282 2.80756,-0.4033 3.18439,-0.4744 5.42907,-1.02452 1.63902,-0.40169 2.07947,-0.46578 1.81973,-0.2648 -0.0743,0.0575 -1.50625,0.56813 -3.18224,1.1348 -5.27131,1.78234 -11.69154,5.04443 -13.14749,6.6802 -0.24836,0.27904 -0.42934,0.53475 -0.40215,0.56825 0.0272,0.0336 0.61484,-0.28851 1.30585,-0.7156 0.69107,-0.42708 1.73393,-0.95846 2.3175,-1.18084 0.58354,-0.22238 1.24236,-0.50695 1.46401,-0.63238 1.86541,-1.05556 8.63969,-2.73305 9.95813,-2.46589 0.41412,0.0839 0.40271,0.0958 -2.08809,2.17565 -2.3859,1.99223 -4.32419,3.88059 -4.36273,4.2503 -0.01,0.0942 -0.26569,0.57486 -0.56859,1.06812 -0.58823,0.95784 -0.77195,1.49597 -0.33735,0.98821 1.27592,-1.49078 5.07633,-4.73693 7.10145,-6.06579 3.23951,-2.1257 9.63161,-4.93277 9.55483,-4.19598 -0.0226,0.21811 -0.72532,1.18757 -2.69404,3.71726 -2.0561,2.64197 -3.22282,4.43647 -4.05763,6.24091 -0.56574,1.2228 -0.63374,1.46663 -0.77679,2.78654 -0.1868,1.72368 -0.0242,2.22926 0.33325,1.03575 0.7635,-2.54977 1.63684,-4.15284 3.52669,-6.47344 3.76077,-4.61796 10.78207,-9.84502 16.834559,-12.53263 1.09525,-0.48634 2.07539,-0.60427 2.03797,-0.24522 -0.008,0.082 -0.19465,0.95785 -0.41361,1.94637 -0.41906,1.89208 -0.69961,4.72511 -0.5107,5.15725 0.0795,0.18191 0.13401,0.0371 0.22333,-0.59342 0.3241,-2.28754 2.189364,-5.58266 4.165444,-7.35856 0.56479,-0.50754 1.03653,-0.78739 1.77253,-1.05145 1.09101,-0.39145 1.04449,-0.33425 1.5611,-1.91955 0.6915,-2.12188 1.60306,-4.19612 2.60808,-5.93456 1.80746,-3.12645 3.35225,-4.91267 6.26247,-7.24136 2.02476,-1.62015 2.89529,-2.18988 5.24233,-3.430869 0.70351,-0.371975 1.28197,-0.7039 1.28547,-0.737604 0.0101,-0.09511 -0.26077,-0.08227 -0.9848,0.04674 z m 7.66433,3.318679 c -1.22639,0.65988 -1.62323,0.79125 -4.28551,1.41857 -2.08327,0.49091 -3.44349,0.61785 -5.88966,0.54964 -2.37856,-0.0663 -2.50046,-0.0333 -3.53144,0.95691 -0.73048,0.70158 -2.02219,2.36086 -2.22648,2.85999 -0.11358,0.27762 -0.0951,0.29561 0.2566,0.2492 0.20847,-0.0275 1.14642,-0.004 2.08433,0.052 2.10731,0.12612 3.17502,0.45054 4.7088,1.43081 1.69144,1.08101 2.40641,2.21941 2.26233,3.60204 -0.0954,0.91525 -0.35254,1.33055 -1.149,1.85536 -0.89557,0.59013 -1.79605,0.83871 -2.88378,0.79605 -1.62596,-0.0637 -1.04734,0.13259 0.94649,0.32118 2.03385,0.19238 1.86075,0.20744 5.43907,-0.4734 0.94654,-0.1801 2.08034,-0.30374 2.62491,-0.28625 l 0.95862,0.0308 -0.12757,0.29881 c -0.60095,1.40756 -2.43587,2.50266 -6.14093,3.66498 -2.00496,0.62899 -2.01127,0.6322 -1.43659,0.73512 0.89825,0.16086 2.96378,0.0808 4.03979,-0.15664 1.45625,-0.3213 2.42384,-0.72923 4.98194,-2.10037 2.40807,-1.29075 2.85655,-1.41919 3.07627,-0.88098 0.19051,0.46677 -0.2053,2.74109 -0.63132,3.62753 -0.77083,1.60375 -2.27299,3.12238 -4.16732,4.21302 -0.68203,0.39267 -0.98478,0.63201 -0.85361,0.67481 0.27468,0.0896 1.97824,-0.55597 2.84867,-1.07953 0.92372,-0.55563 4.39899,-2.99486 6.11587,-4.29265 2.58018,-1.95034 3.35763,-2.07433 3.60959,-0.57569 0.12244,0.7282 -0.26909,2.45453 -0.88905,3.91926 -0.60005,1.41794 -2.13945,3.86895 -2.87983,4.58534 -0.32792,0.31727 -0.5753,0.60263 -0.54973,0.63414 0.0255,0.0315 0.41592,-0.11052 0.86747,-0.31559 2.60098,-1.18121 5.19151,-4.94145 6.22618,-9.03759 0.26778,-1.06011 0.27638,-1.07404 0.63971,-1.03618 1.37809,0.14361 2.55249,2.50204 2.36285,4.74505 -0.0366,0.43229 -0.0428,0.96484 -0.0139,1.18344 l 0.0526,0.39746 0.15765,-0.37556 c 0.0867,-0.20654 0.26453,-1.42274 0.39521,-2.70266 0.22032,-2.15822 0.22067,-2.41223 0.005,-3.49963 -0.28887,-1.45741 -0.8293,-2.90301 -1.35354,-3.62072 -0.6794,-0.93008 -1.49964,-1.62205 -5.94038,-5.01142 -2.36264,-1.80328 -4.64575,-3.5872 -5.07357,-3.96427 -1.05785,-0.93235 -2.54239,-2.70215 -2.86787,-3.41891 -0.14693,-0.32362 -0.33489,-0.59544 -0.41759,-0.60406 -0.0827,-0.009 -0.69091,0.27515 -1.35151,0.63059 z"
       id="path4487"
       inkscape:connector-curvature="0" /></g></svg>