<?xml version="1.0" encoding="UTF-8" standalone="no"?>
<!-- Created with Inkscape (http://www.inkscape.org/) -->

<svg
   xmlns:dc="http://purl.org/dc/elements/1.1/"
   xmlns:cc="http://creativecommons.org/ns#"
   xmlns:rdf="http://www.w3.org/1999/02/22-rdf-syntax-ns#"
   xmlns:svg="http://www.w3.org/2000/svg"
   xmlns="http://www.w3.org/2000/svg"
   xmlns:sodipodi="http://sodipodi.sourceforge.net/DTD/sodipodi-0.dtd"
   xmlns:inkscape="http://www.inkscape.org/namespaces/inkscape"
   version="1.1"
   id="svg2"
   xml:space="preserve"
   width="512"
   height="512"
   viewBox="0 0 511.99997 512"
   sodipodi:docname="logo_siyah.svg"
   inkscape:version="0.92.4 5da689c313, 2019-01-14"
   inkscape:export-filename="/home/trlinux/Downloads/deneme_2.png"
   inkscape:export-xdpi="96"
   inkscape:export-ydpi="96"><metadata
     id="metadata8"><rdf:RDF><cc:Work
         rdf:about=""><dc:format>image/svg+xml</dc:format><dc:type
           rdf:resource="http://purl.org/dc/dcmitype/StillImage" /><dc:title></dc:title></cc:Work></rdf:RDF></metadata><defs
     id="defs6"><clipPath
       clipPathUnits="userSpaceOnUse"
       id="clipPath18"><path
         d="M 0,800 H 800 V 0 H 0 Z"
         id="path16"
         inkscape:connector-curvature="0" /></clipPath><clipPath
       clipPathUnits="userSpaceOnUse"
       id="clipPath3426"><path
         d="M 0,800 H 800 V 0 H 0 Z"
         id="path3424"
         inkscape:connector-curvature="0" /></clipPath></defs><sodipodi:namedview
     pagecolor="#ffffff"
     bordercolor="#666666"
     borderopacity="1"
     objecttolerance="10"
     gridtolerance="10"
     guidetolerance="10"
     inkscape:pageopacity="0"
     inkscape:pageshadow="2"
     inkscape:window-width="1366"
     inkscape:window-height="744"
     id="namedview4"
     showgrid="false"
     inkscape:zoom="0.45254834"
     inkscape:cx="15.369478"
     inkscape:cy="260.06663"
     inkscape:window-x="0"
     inkscape:window-y="0"
     inkscape:window-maximized="0"
     inkscape:current-layer="g10" /><g
     id="g10"
     inkscape:groupmode="layer"
     inkscape:label="14669-NPP3OF"
     transform="matrix(1.3333333,0,0,-1.3333333,0,512)"><path
       style="fill:#272822;fill-opacity:1;stroke-width:0.47387895"
       d="m 133.27609,83.43657 c 0.23009,0.297924 0.64023,2.559984 0.91153,5.026788 0.43513,3.951801 0.67763,4.761379 2.04353,6.809021 0.85257,1.278186 1.57272,2.540358 1.60022,2.80482 0.0272,0.264521 -0.89454,0.159227 -2.04923,-0.233939 -4.9363,-1.680768 -11.64697,-3.523727 -14.29547,-3.925932 -4.23213,-0.642668 -9.25945,-4.193134 -5.38608,-3.803793 1.53112,0.153803 2.30938,0.501729 7.14162,3.191998 1.55065,0.863255 2.52193,1.048573 4.44551,0.848125 3.98702,-0.415502 5.74916,-3.206948 5.23149,-8.287422 -0.31584,-3.13134 -0.29809,-3.277373 0.35688,-2.429666 z m 61.33414,-2.862654 c 0.39858,3.825462 -0.15449,6.692374 -2.4727,12.819042 -1.76684,4.669254 -5.61504,9.996312 -11.97351,16.575192 -1.95148,2.01912 -3.52091,3.92557 -3.48757,4.23659 0.0441,0.41759 2.18833,0.34704 8.19058,-0.26933 5.63251,-0.5786 8.72356,-0.69625 10.06194,-0.38362 l 1.93206,0.45125 -4.90842,2.99103 c -9.1722,5.5893 -18.51269,15.5568 -18.88891,20.15702 -0.31048,3.79646 2.03712,2.83288 6.32484,-2.59594 3.20705,-4.0607 4.77564,-5.0662 8.52088,-5.462 2.57706,-0.27276 7.65865,-2.72965 12.55365,-6.07062 6.35058,-4.3344 12.5538,-8.04209 14.21874,-8.49841 1.69922,-0.46571 4.83356,0.74826 7.23969,2.80387 l 1.45616,1.244 -1.77172,1.52238 c -2.15631,1.85283 -4.81036,5.39952 -4.41949,5.90587 0.69518,0.90054 4.94543,0.99022 9.55537,0.20166 l 4.76539,-0.81509 1.90686,1.80884 c 1.04875,0.99482 2.62568,2.89815 3.50418,4.22958 1.29012,1.95529 1.4817,2.51116 0.99618,2.89063 -0.33051,0.25842 -2.88717,0.97748 -5.68146,1.59795 -4.83505,1.07367 -5.06101,1.17479 -4.68037,2.09353 1.16493,2.81198 2.35576,3.46856 8.80555,4.85468 7.20501,1.54841 10.2832,3.03287 13.07663,6.306 l 1.69425,1.98518 -4.66303,0.14258 -4.66299,0.14257 0.8579,1.05571 c 0.84215,1.03606 3.07745,2.46611 11.6652,7.46277 5.01884,2.92009 7.44488,5.30964 8.18381,8.06067 0.29067,1.08264 0.446,2.07031 0.34525,2.19476 -0.10113,0.12446 -1.25407,-0.42717 -2.5623,-1.22591 -1.30836,-0.79874 -2.64232,-1.42481 -2.96447,-1.39125 -0.32212,0.0336 -1.82206,-0.67528 -3.33315,-1.57526 -3.31731,-1.97572 -4.70041,-2.469 -23.49445,-8.3789 -17.56244,-5.52262 -26.03008,-7.74383 -35.49998,-9.3123 -16.54354,-2.74014 -21.9637,-2.57053 -32.05561,1.00284 -6.26943,2.2199 -6.69029,2.30481 -16.56543,3.34253 -8.62766,0.90744 -10.95414,0.99065 -15.66384,0.56546 -6.17965,-0.55787 -10.82959,-1.28231 -10.538,-1.64175 0.18774,-0.23161 10.24077,-2.43343 17.00637,-3.72478 1.86282,-0.35567 3.37186,-0.79095 3.35344,-0.9676 -0.0955,-0.91723 -5.33582,-3.82439 -11.20019,-6.21363 l -4.01764,-1.63687 4.18226,-2.66835 c 2.30019,-1.46754 4.87846,-3.18758 5.72951,-3.82222 1.7458,-1.30192 4.33215,-4.14868 4.27422,-4.70473 -0.0207,-0.20168 -0.76579,-0.66185 -1.65499,-1.02249 -1.34515,-0.54546 -3.29907,-0.5129 -11.62667,0.19377 -9.07267,0.76986 -10.09399,0.77389 -10.90841,0.0428 -1.15009,-1.032 -2.73315,-0.85297 -5.96141,0.67394 -1.42113,0.67222 -3.17247,1.28232 -3.89196,1.35581 -1.83203,0.1867 -4.93613,-0.39034 -4.99231,-0.92883 -0.0262,-0.24701 0.11844,-0.46637 0.32046,-0.4874 0.20211,-0.021 1.10257,-0.91822 2.00124,-1.99366 l 1.63414,-1.95535 -1.01515,-6.80426 c -0.55821,-3.74237 -1.31902,-8.43421 -1.69056,-10.42634 l -0.67562,-3.62205 2.95326,-0.30775 2.95329,-0.30775 -0.57993,-3.274665 c -0.31884,-1.801129 -0.48959,-3.284134 -0.37943,-3.295638 0.1106,-0.01261 2.52399,1.30626 5.36335,2.928344 2.83935,1.622059 7.5759,4.236669 10.5257,5.810219 l 5.36308,2.86098 2.81858,-0.59477 2.81842,-0.5948 4.57755,7.17212 c 4.2866,6.71609 5.7128,8.5309 5.54544,7.05669 -0.0357,-0.33935 -1.0343,-3.72244 -2.21284,-7.5187 -3.04795,-9.81719 -3.0487,-9.80723 0.68765,-8.36698 1.14163,0.44004 2.6827,0.90768 3.42445,1.03921 1.33905,0.2374 1.34703,0.22319 1.11648,-1.99 l -0.23235,-2.22907 1.55017,0.0166 c 2.10944,0.0229 9.4206,-2.334408 18.15429,-5.853359 14.50877,-5.845736 22.17474,-10.411175 26.96838,-16.060764 l 1.80338,-2.125405 z m -94.20044,12.421811 c 0.60981,5.515735 0.5913,5.573639 -1.972796,4.894793 -0.747572,-0.198334 -4.804075,-0.199804 -9.014594,-0.003 -10.626574,0.496329 -11.522058,0.08263 -3.172012,-1.465138 3.701986,-0.686269 7.5082,-1.560338 8.45816,-1.942395 2.015051,-0.81043 4.734106,-3.56425 4.627706,-4.686789 -0.044,-0.426783 0.0573,-1.03618 0.21628,-1.353243 0.15947,-0.31708 0.545286,1.733136 0.857256,4.556 z M 80.322811,114.8768 c -0.349368,5.01132 -0.236572,6.36547 0.617593,7.4132 0.988179,1.21228 3.489158,1.60486 4.756633,0.74655 0.712347,-0.4824 0.781206,-0.88497 0.380831,-2.22977 -0.464321,-1.5603 -0.436707,-1.62003 0.560682,-1.2129 2.068498,0.84437 2.674431,2.58274 1.853049,5.31589 l -0.504979,1.68012 -2.052538,-0.56909 c -1.921613,-0.53277 -2.197156,-0.50018 -4.317868,0.51146 -2.25097,1.07379 -2.270318,1.07461 -3.09302,0.12697 -1.229356,-1.41629 -3.731273,-1.97987 -7.189445,-1.61949 -3.534239,0.3683 -3.708344,0.13902 -2.443302,-3.21859 1.659763,-4.40529 4.659628,-7.11857 9.052726,-8.1881 l 2.508948,-0.61078 z m -5.048361,15.54437 c 0.614587,0.54986 1.808082,1.89263 2.652278,2.98383 1.986978,2.56844 2.768171,3.01311 4.930298,2.80618 1.919644,-0.18335 2.396272,-0.98713 2.607099,-4.39427 l 0.09459,-1.52713 2.023979,1.05562 2.023788,1.05559 1.380656,-1.97972 1.380656,-1.97973 2.837482,2.09771 c 4.447938,3.28852 8.485654,3.80702 13.795474,1.7716 3.81373,-1.46199 4.44634,-1.42855 4.97169,0.26276 l 0.45016,1.44863 2.44189,-0.55794 c 1.34292,-0.30693 4.23336,-0.85353 6.4231,-1.21487 l 3.98137,-0.65692 -3.5765,2.25551 c -1.96716,1.24055 -5.10742,2.99551 -6.9785,3.89995 -1.87111,0.90441 -3.47809,1.7215 -3.57116,1.8158 -0.50864,0.51546 1.63375,1.57843 5.87482,2.91459 2.62805,0.82797 5.11934,1.76617 5.53623,2.08486 0.65056,0.49729 0.39295,0.61808 -1.81707,0.85206 -4.88382,0.51734 -19.80618,6.26909 -22.14074,8.53434 -2.021646,1.96176 -1.379336,3.13591 2.72091,4.97306 4.79498,2.14844 17.26512,8.7014 19.53187,10.26388 l 1.79669,1.2384 -2.62164,0.29203 c -5.51089,0.61487 -12.97739,-0.57504 -22.369536,-3.56526 -11.270167,-3.58816 -17.914609,-7.00712 -25.022355,-12.87548 -4.207606,-3.47398 -4.408204,-3.57967 -4.594165,-2.42116 -0.178156,1.10944 -0.328049,0.99064 -1.781678,-1.41206 -1.199109,-1.98182 -1.83267,-3.83848 -2.590656,-7.59137 -1.167386,-5.77903 -0.969779,-8.20559 0.876034,-10.762 1.069425,-1.48104 1.481241,-1.68244 4.397799,-2.15146 2.900209,-0.46625 3.328279,-0.4188 4.335238,0.48245 z m 7.410242,0.82049 c 0.249827,2.39763 -0.468823,2.85576 -2.233883,1.42389 -1.058901,-0.85913 -1.54209,-2.03448 -0.661546,-1.60936 0.265887,0.12841 0.870418,-0.24368 1.343291,-0.82652 0.472856,-0.58293 0.965824,-1.07094 1.095422,-1.08444 0.129606,-0.0124 0.335097,0.92985 0.456716,2.09643 z m 32.980228,26.1587 c 1.33501,0.23788 4.19756,0.56863 6.3612,0.73498 2.16362,0.16631 4.86023,0.52467 5.99236,0.7961 1.13209,0.27147 4.86824,0.51179 8.30264,0.53402 6.97268,0.0452 17.19738,-1.41202 23.04967,-3.28495 1.77518,-0.56809 4.84351,-1.42951 6.81856,-1.91428 l 3.59114,-0.88137 7.80477,2.79522 c 14.41693,5.16326 24.17844,7.62333 36.09533,9.09666 10.33767,1.27806 9.82998,1.09191 14.3829,5.27354 5.81781,5.34316 23.13344,26.48972 27.39027,33.45006 13.57748,22.19995 28.97798,30.42447 69.01522,36.85678 20.39258,3.27631 25.56387,4.26664 29.16882,5.58621 6.55645,2.39994 6.98977,3.37689 1.11451,2.51206 -5.47558,-0.80599 -17.41613,-1.42957 -25.87033,-1.35106 -5.7236,0.0531 -7.70212,0.23322 -9.43946,0.85918 -1.20879,0.43555 -2.11621,0.99782 -2.01628,1.24945 0.0999,0.25165 3.10748,1.33802 6.68351,2.41409 6.38062,1.92008 13.52689,4.91881 18.54207,7.78061 1.39221,0.79439 2.28084,1.47044 1.97495,1.50235 -0.3058,0.0318 -4.36258,-0.84203 -9.01497,-1.94203 -11.19165,-2.64597 -22.02691,-4.71083 -32.96565,-6.28216 -10.23766,-1.47063 -11.61175,-1.72989 -19.79688,-3.73588 -5.97661,-1.46474 -7.58267,-1.69845 -6.63553,-0.96558 0.27074,0.20955 5.49247,2.07167 11.60386,4.13802 19.22163,6.49921 42.63269,18.39427 47.94175,24.35903 0.90563,1.01749 1.56557,1.94994 1.4664,2.07209 -0.0992,0.12237 -2.24196,-1.05205 -4.76172,-2.60939 -2.51995,-1.55734 -6.32269,-3.49498 -8.45063,-4.30587 -2.12786,-0.81092 -4.53022,-1.84859 -5.33845,-2.30595 -6.80214,-3.84907 -31.50424,-9.96596 -36.31189,-8.99175 -1.51006,0.30592 -1.46847,0.34933 7.61412,7.93338 8.70009,7.26459 15.768,14.15042 15.9085,15.49853 0.0357,0.34351 0.96883,2.09619 2.07337,3.89486 2.14495,3.49272 2.81485,5.45499 1.23012,3.60344 -4.6526,-5.43605 -18.51061,-17.27299 -25.89513,-22.11862 -11.81271,-7.75124 -35.12121,-17.98711 -34.84123,-15.30044 0.0826,0.79533 2.64484,4.33044 9.82367,13.55483 7.49749,9.63382 11.75188,16.17739 14.79597,22.7572 2.06295,4.45886 2.31089,5.34798 2.83251,10.16097 0.68116,6.28531 0.0883,8.12889 -1.21518,3.77682 -2.78406,-9.29763 -5.96864,-15.14315 -12.85989,-23.6051 -13.71349,-16.83917 -39.31634,-35.89941 -61.38646,-45.69968 -3.99376,-1.77341 -7.56782,-2.20343 -7.43136,-0.89418 0.031,0.29895 0.70979,3.49278 1.5082,7.09738 1.52809,6.89937 2.55111,17.22987 1.86225,18.80565 -0.28992,0.66333 -0.48865,0.13548 -0.81436,-2.16388 -1.18183,-8.34141 -7.98339,-20.35692 -15.18908,-26.83264 -2.05949,-1.85072 -3.77965,-2.87119 -6.46347,-3.83408 -3.97828,-1.4274 -3.80866,-1.21881 -5.69244,-6.99955 -2.52153,-7.73733 -5.84549,-15.30096 -9.51027,-21.6401 -6.59082,-11.40045 -12.2238,-17.9138 -22.83581,-26.40527 -7.3832,-5.90782 -10.55753,-7.98531 -19.11591,-12.51051 -2.5653,-1.35639 -4.67465,-2.56674 -4.68741,-2.68964 -0.0367,-0.3468 0.95088,-0.29999 3.59105,0.17045 z m -27.947641,12.10142 c 4.471972,2.40622 5.919031,2.88524 15.626911,5.17276 7.59658,1.79005 12.55654,2.25293 21.47638,2.00421 8.67331,-0.24187 9.11782,-0.12134 12.87726,3.48935 2.66365,2.55828 7.37381,8.60876 8.11874,10.42882 0.41417,1.0123 0.34663,1.07792 -0.93568,0.90868 -0.76016,-0.10024 -4.18037,-0.0145 -7.60042,0.1896 -7.68419,0.45986 -11.57756,1.64287 -17.17043,5.21735 -6.16773,3.94187 -8.77485,8.093 -8.24947,13.1347 0.34778,3.33742 1.28553,4.85179 4.18977,6.76549 3.26565,2.15188 6.54922,3.05831 10.51557,2.90275 5.92899,-0.23247 3.81907,0.48347 -3.45132,1.17116 -7.41634,0.7015 -6.78513,0.75644 -19.83332,-1.72621 -3.451516,-0.65674 -7.585852,-1.10758 -9.571612,-1.0438 l -3.495553,0.11238 0.465179,1.08959 c 2.191317,5.1326 8.88227,9.12582 22.392606,13.36418 7.31098,2.29359 7.33399,2.30527 5.23844,2.68057 -3.27541,0.58659 -10.80726,0.29456 -14.7309,-0.57116 -5.310156,-1.1716 -8.838403,-2.65913 -18.166394,-7.65893 -8.780928,-4.70665 -10.416285,-5.175 -11.217475,-3.21245 -0.694704,1.70205 0.748599,9.99528 2.302058,13.22765 2.8108,5.848 8.288351,11.38559 15.195938,15.36258 2.487001,1.43185 3.590967,2.3046 3.11266,2.46065 -1.001606,0.32676 -7.213576,-2.0273 -10.387563,-3.93645 -3.368286,-2.02607 -16.040704,-10.92063 -22.301229,-15.65297 -9.408492,-7.11181 -12.24342,-7.56394 -13.162198,-2.0992 -0.446486,2.65535 0.981226,8.95033 3.241868,14.29137 2.188055,5.17046 7.801408,14.10795 10.501194,16.72024 1.195729,1.15692 2.097792,2.19749 2.004543,2.31236 -0.09301,0.11468 -1.516642,-0.403 -3.163185,-1.15079 -9.484368,-4.30721 -18.930606,-18.01877 -22.703468,-32.95513 -0.976454,-3.86564 -1.007813,-3.91643 -2.332679,-3.77838 -5.025153,0.52366 -9.307531,9.12356 -8.616026,17.30259 0.133352,1.57633 0.15609,3.51824 0.05076,4.31535 l -0.191872,1.44935 -0.574851,-1.36947 c -0.316131,-0.75316 -0.964615,-5.18798 -1.441139,-9.85515 -0.803364,-7.86984 -0.804667,-8.79608 -0.01869,-12.76121 1.053364,-5.31441 3.024002,-10.58569 4.935642,-13.2028 2.477399,-3.39151 5.468347,-5.91473 21.661298,-18.27392 8.61527,-6.57556 16.940543,-13.08054 18.500563,-14.45551 3.857404,-3.3998 9.270707,-9.85329 10.457528,-12.46692 0.53579,-1.18005 1.221185,-2.17124 1.522751,-2.20267 0.301645,-0.0315 2.519378,1.00332 4.928214,2.29942 z"
       id="path4487"
       inkscape:connector-curvature="0" /></g></svg>