<?xml version="1.0" encoding="UTF-8" standalone="no"?>
<!-- Created with Inkscape (http://www.inkscape.org/) -->

<svg
   xmlns:dc="http://purl.org/dc/elements/1.1/"
   xmlns:cc="http://creativecommons.org/ns#"
   xmlns:rdf="http://www.w3.org/1999/02/22-rdf-syntax-ns#"
   xmlns:svg="http://www.w3.org/2000/svg"
   xmlns="http://www.w3.org/2000/svg"
   xmlns:sodipodi="http://sodipodi.sourceforge.net/DTD/sodipodi-0.dtd"
   xmlns:inkscape="http://www.inkscape.org/namespaces/inkscape"
   version="1.1"
   id="svg2"
   xml:space="preserve"
   width="70"
   height="70"
   viewBox="0 0 69.999996 70"
   sodipodi:docname="spinner.svg"
   inkscape:version="0.92.4 5da689c313, 2019-01-14"
   inkscape:export-filename="/home/trlinux/milis-gtk-theme/playmount-milis/milis-acik/spinner.png"
   inkscape:export-xdpi="96"
   inkscape:export-ydpi="96"><metadata
     id="metadata8"><rdf:RDF><cc:Work
         rdf:about=""><dc:format>image/svg+xml</dc:format><dc:type
           rdf:resource="http://purl.org/dc/dcmitype/StillImage" /><dc:title></dc:title></cc:Work></rdf:RDF></metadata><defs
     id="defs6"><clipPath
       clipPathUnits="userSpaceOnUse"
       id="clipPath18"><path
         d="M 0,800 H 800 V 0 H 0 Z"
         id="path16"
         inkscape:connector-curvature="0" /></clipPath><clipPath
       clipPathUnits="userSpaceOnUse"
       id="clipPath3426"><path
         d="M 0,800 H 800 V 0 H 0 Z"
         id="path3424"
         inkscape:connector-curvature="0" /></clipPath></defs><sodipodi:namedview
     pagecolor="#ffffff"
     bordercolor="#666666"
     borderopacity="1"
     objecttolerance="10"
     gridtolerance="10"
     guidetolerance="10"
     inkscape:pageopacity="0"
     inkscape:pageshadow="2"
     inkscape:window-width="1364"
     inkscape:window-height="704"
     id="namedview4"
     showgrid="false"
     inkscape:zoom="3.6642857"
     inkscape:cx="49.721641"
     inkscape:cy="25.399157"
     inkscape:window-x="0"
     inkscape:window-y="0"
     inkscape:window-maximized="0"
     inkscape:current-layer="g10" /><g
     id="g10"
     inkscape:groupmode="layer"
     inkscape:label="14669-NPP3OF"
     transform="matrix(1.3333333,0,0,-1.3333333,0,70)"><path
       style="fill:#272822;stroke-width:0.04593328;fill-opacity:1"
       d="M 25.102916,3.7750871 C 20.175234,4.0386727 15.581983,5.8485205 11.75939,9.0327465 11.163418,9.5291914 9.9119013,10.755748 9.3750298,11.369552 6.666403,14.46632 4.9076348,18.054631 4.140573,22.049105 c -0.2554961,1.3305 -0.4315372,3.3293 -0.382301,4.340723 0.096229,1.976757 1.3512018,3.499907 3.2820877,3.983442 0.4687155,0.117376 1.4806638,0.103616 1.9630517,-0.0267 0.4528508,-0.12233 1.0491246,-0.403338 1.4250116,-0.671567 0.591839,-0.422334 1.204466,-1.208251 1.45085,-1.861244 0.229854,-0.609185 0.273275,-0.897777 0.317911,-2.112944 0.04742,-1.291135 0.122559,-2.060719 0.302704,-3.100516 1.067057,-6.159084 4.854555,-11.440048 10.145616,-14.1461703 3.563338,-1.8224768 7.597498,-2.3455806 11.506208,-1.4919944 1.377846,0.3008948 2.660938,0.7598501 3.996168,1.4294071 1.878298,0.9418821 3.198543,1.8997466 4.734115,3.4347006 1.85808,1.857329 3.182128,3.814155 4.213135,6.226644 0.283588,0.663576 0.714227,1.877785 0.85959,2.423655 0.04551,0.170891 0.09189,0.301557 0.103081,0.29037 0.03255,-0.03255 -0.295883,-1.172725 -0.548585,-1.904432 C 46.76438,16.705784 45.631433,14.5832 44.233066,12.724592 42.783474,10.797898 40.836512,8.9430942 38.882808,7.6275821 35.90039,5.6193942 32.586947,4.3676439 29.099085,3.9314941 27.815159,3.7709416 26.293682,3.7113919 25.102916,3.7750871 Z M 48.073027,20.904594 c 0.0022,0.05351 0.01309,0.06439 0.02776,0.02776 0.01327,-0.03316 0.01164,-0.07278 -0.0036,-0.08804 -0.01526,-0.01526 -0.02611,0.01187 -0.02413,0.06029 z m 0.04593,0.183733 c 0.0022,0.05351 0.01308,0.06439 0.02776,0.02776 0.01327,-0.03316 0.01164,-0.07278 -0.0036,-0.08804 -0.01526,-0.01526 -0.02611,0.01187 -0.02413,0.06029 z m 0.04593,0.183735 c 0.0022,0.05351 0.01309,0.06439 0.02776,0.02776 0.01327,-0.03316 0.01163,-0.07278 -0.0036,-0.08803 -0.01526,-0.01526 -0.02611,0.01186 -0.02413,0.06029 z m 0.04593,0.229668 c 0.0022,0.05351 0.01308,0.06439 0.02776,0.02776 0.01327,-0.03316 0.01164,-0.07278 -0.0036,-0.08803 -0.01526,-0.01526 -0.02611,0.01187 -0.02413,0.06029 z m 0.04593,0.183735 c 0.0022,0.05351 0.01309,0.06439 0.02775,0.02776 0.01327,-0.03316 0.01164,-0.07278 -0.0036,-0.08803 -0.01526,-0.01526 -0.02611,0.01187 -0.02413,0.06029 z m 0.04593,0.229667 c 0.0022,0.05351 0.01309,0.06439 0.02776,0.02776 0.01327,-0.03316 0.01164,-0.07278 -0.0036,-0.08803 -0.01526,-0.01526 -0.02611,0.01187 -0.02413,0.06029 z m -4.489368,0.178964 c -0.84853,0.153976 -1.557346,0.517418 -2.191144,1.123497 -0.396667,0.379322 -0.66983,0.759359 -0.902141,1.255104 -0.30153,0.643458 -0.366329,1.001336 -0.413657,2.284599 -0.06477,1.756262 -0.236805,3.061354 -0.596444,4.524809 C 37.882512,38.718343 32.1637,44.362752 25.148847,45.653751 21.000329,46.417237 16.768454,45.641621 13.114414,43.448066 11.234973,42.319823 9.3858701,40.664689 7.9638826,38.837824 6.6175741,37.108185 5.4527641,34.882332 4.7548803,32.705693 4.497359,31.902507 4.472842,31.836476 4.5075879,32.039656 c 0.04444,0.259847 0.4190044,1.442701 0.6690953,2.112944 1.7288736,4.633376 4.9983768,8.605899 9.2697858,11.263005 4.301225,2.675656 9.551322,3.804395 14.675582,3.155162 4.450978,-0.56393 8.607212,-2.446937 12.011472,-5.441867 0.530702,-0.466892 1.707204,-1.651039 2.14125,-2.155165 3.268445,-3.796171 5.133117,-8.408064 5.441859,-13.459346 0.110756,-1.81207 -0.03995,-2.620711 -0.667567,-3.582007 -0.911353,-1.395881 -2.610347,-2.133234 -4.23574,-1.838286 z M 4.2070424,30.826244 c 0.00223,0.05351 0.013084,0.06439 0.027755,0.02776 0.013273,-0.03316 0.011635,-0.07278 -0.0036,-0.08803 -0.015262,-0.01526 -0.026117,0.01187 -0.024128,0.06029 z m 0.045932,0.229668 c 0.00223,0.05351 0.013084,0.06439 0.027755,0.02776 0.013264,-0.03316 0.011635,-0.07278 -0.0036,-0.08804 -0.015262,-0.01526 -0.026117,0.01187 -0.024128,0.06029 z m 0.045932,0.183734 c 0.00223,0.05351 0.013093,0.06439 0.027755,0.02776 0.013273,-0.03316 0.011635,-0.07278 -0.0036,-0.08803 -0.015262,-0.01526 -0.026117,0.01187 -0.024128,0.06029 z m 0.045932,0.183735 c 0.00223,0.05351 0.013084,0.06439 0.027755,0.02776 0.013264,-0.03316 0.011635,-0.07278 -0.0036,-0.08804 -0.015262,-0.01526 -0.026117,0.01187 -0.024128,0.06029 z m 0.045932,0.183735 c 0.00223,0.05351 0.013084,0.06439 0.027755,0.02776 0.013273,-0.03316 0.011635,-0.07278 -0.0036,-0.08804 -0.015262,-0.01526 -0.026117,0.01187 -0.024128,0.06029 z m 0.045932,0.183732 c 0.00223,0.05351 0.013084,0.06439 0.027754,0.02776 0.013273,-0.03316 0.011635,-0.07278 -0.0036,-0.08803 -0.015262,-0.01526 -0.026117,0.01186 -0.024128,0.06029 z"
       id="path23"
       inkscape:connector-curvature="0" /></g></svg>