<?xml version="1.0" encoding="UTF-8" standalone="no"?>
<!-- Created with Inkscape (http://www.inkscape.org/) -->

<svg
   xmlns:dc="http://purl.org/dc/elements/1.1/"
   xmlns:cc="http://creativecommons.org/ns#"
   xmlns:rdf="http://www.w3.org/1999/02/22-rdf-syntax-ns#"
   xmlns:svg="http://www.w3.org/2000/svg"
   xmlns="http://www.w3.org/2000/svg"
   xmlns:sodipodi="http://sodipodi.sourceforge.net/DTD/sodipodi-0.dtd"
   xmlns:inkscape="http://www.inkscape.org/namespaces/inkscape"
   version="1.1"
   id="svg2"
   xml:space="preserve"
   width="70"
   height="70"
   viewBox="0 0 69.999996 70"
   sodipodi:docname="spinner.svg"
   inkscape:version="0.92.4 5da689c313, 2019-01-14"
   inkscape:export-filename="/home/trlinux/milis-gtk-theme/playmount-milis/milis-acik/spinner.png"
   inkscape:export-xdpi="96"
   inkscape:export-ydpi="96"><metadata
     id="metadata8"><rdf:RDF><cc:Work
         rdf:about=""><dc:format>image/svg+xml</dc:format><dc:type
           rdf:resource="http://purl.org/dc/dcmitype/StillImage" /><dc:title></dc:title></cc:Work></rdf:RDF></metadata><defs
     id="defs6"><clipPath
       clipPathUnits="userSpaceOnUse"
       id="clipPath18"><path
         d="M 0,800 H 800 V 0 H 0 Z"
         id="path16"
         inkscape:connector-curvature="0" /></clipPath><clipPath
       clipPathUnits="userSpaceOnUse"
       id="clipPath3426"><path
         d="M 0,800 H 800 V 0 H 0 Z"
         id="path3424"
         inkscape:connector-curvature="0" /></clipPath></defs><sodipodi:namedview
     pagecolor="#ffffff"
     bordercolor="#666666"
     borderopacity="1"
     objecttolerance="10"
     gridtolerance="10"
     guidetolerance="10"
     inkscape:pageopacity="0"
     inkscape:pageshadow="2"
     inkscape:window-width="1364"
     inkscape:window-height="704"
     id="namedview4"
     showgrid="false"
     inkscape:zoom="1.8321429"
     inkscape:cx="63.677771"
     inkscape:cy="22.936912"
     inkscape:window-x="0"
     inkscape:window-y="0"
     inkscape:window-maximized="0"
     inkscape:current-layer="g10" /><g
     id="g10"
     inkscape:groupmode="layer"
     inkscape:label="14669-NPP3OF"
     transform="matrix(1.3333333,0,0,-1.3333333,0,70)"><path
       style="fill:#272822;fill-opacity:1;stroke-width:0.02296664"
       d="m 25.676458,15.012544 c -2.463841,0.131793 -4.760466,1.036717 -6.671763,2.62883 -0.297986,0.248222 -0.923744,0.8615 -1.19218,1.168402 -1.354313,1.548384 -2.233697,3.34254 -2.617228,5.339777 -0.127748,0.66525 -0.215769,1.66465 -0.191151,2.170361 0.04811,0.988379 0.675601,1.749954 1.641044,1.991721 0.234358,0.05869 0.740332,0.05181 0.981526,-0.01335 0.226425,-0.06116 0.524562,-0.201669 0.712506,-0.335783 0.295919,-0.211167 0.602233,-0.604126 0.725425,-0.930622 0.114927,-0.304593 0.136637,-0.448889 0.158955,-1.056472 0.02371,-0.645568 0.06128,-1.03036 0.151352,-1.550258 0.533529,-3.079542 2.427278,-5.720024 5.072808,-7.073085 1.781669,-0.911239 3.798749,-1.172791 5.753104,-0.745998 0.688923,0.150448 1.330469,0.379925 1.998084,0.714704 0.939149,0.470941 1.599272,0.949873 2.367058,1.71735 0.92904,0.928665 1.591063,1.907078 2.106567,3.113322 0.141794,0.331788 0.357113,0.938893 0.429795,1.211828 0.02276,0.08544 0.04594,0.150778 0.05154,0.145185 0.01628,-0.01628 -0.147941,-0.586363 -0.274292,-0.952216 -0.372418,-1.078348 -0.938892,-2.13964 -1.638075,-3.068944 -0.724796,-0.963347 -1.698277,-1.890749 -2.675129,-2.548505 -1.491209,-1.004094 -3.14793,-1.629969 -4.891861,-1.848044 -0.641963,-0.08028 -1.402702,-0.110051 -1.998085,-0.0782 z m 11.485055,8.564753 c 0.0011,0.02675 0.0065,0.03219 0.01388,0.01388 0.0066,-0.01658 0.0058,-0.03639 -0.0018,-0.04402 -0.0076,-0.0076 -0.01306,0.0059 -0.01206,0.03014 z m 0.02296,0.09187 c 0.0011,0.02675 0.0065,0.03219 0.01388,0.01388 0.0066,-0.01658 0.0058,-0.03639 -0.0018,-0.04402 -0.0076,-0.0076 -0.01305,0.0059 -0.01206,0.03015 z m 0.02297,0.09187 c 0.0011,0.02676 0.0065,0.0322 0.01388,0.01388 0.0066,-0.01658 0.0058,-0.03639 -0.0018,-0.04401 -0.0076,-0.0076 -0.01305,0.0059 -0.01206,0.03015 z m 0.02296,0.114834 c 0.0011,0.02676 0.0065,0.0322 0.01388,0.01388 0.0066,-0.01658 0.0058,-0.03639 -0.0018,-0.04401 -0.0076,-0.0076 -0.01306,0.0059 -0.01207,0.03015 z m 0.02296,0.09187 c 0.0011,0.02675 0.0065,0.03219 0.01387,0.01388 0.0066,-0.01658 0.0058,-0.03639 -0.0018,-0.04401 -0.0076,-0.0076 -0.01305,0.0059 -0.01206,0.03015 z m 0.02296,0.114833 c 0.0011,0.02675 0.0065,0.03219 0.01388,0.01388 0.0066,-0.01658 0.0058,-0.03639 -0.0018,-0.04401 -0.0076,-0.0076 -0.01306,0.0059 -0.01206,0.03014 z m -2.244683,0.08948 c -0.424265,0.07699 -0.778673,0.258709 -1.095572,0.561749 -0.198334,0.189661 -0.334915,0.379679 -0.451071,0.627552 -0.150765,0.321729 -0.183164,0.500668 -0.206828,1.142299 -0.03238,0.878131 -0.118403,1.530677 -0.298222,2.262405 -0.913706,3.718119 -3.773112,6.540323 -7.280538,7.185822 -2.074259,0.381743 -4.190197,-0.0061 -6.017217,-1.102842 -0.939705,-0.564127 -1.864257,-1.391694 -2.57525,-2.305127 -0.673155,-0.864819 -1.25556,-1.977746 -1.604501,-3.066065 -0.128761,-0.401593 -0.14102,-0.434609 -0.123647,-0.333019 0.02222,0.129924 0.209503,0.721351 0.334548,1.056472 0.864437,2.316688 2.499188,4.30295 4.634893,5.631502 2.150612,1.337828 4.775661,1.902198 7.337791,1.577581 2.225489,-0.281965 4.303606,-1.223468 6.005736,-2.720933 0.265351,-0.233446 0.853602,-0.825519 1.070625,-1.077582 1.634222,-1.898086 2.566558,-4.204032 2.720929,-6.729673 0.05538,-0.906035 -0.01997,-1.310356 -0.333784,-1.791004 -0.455676,-0.69794 -1.305173,-1.066617 -2.117869,-0.919143 z m -19.803118,4.366068 c 0.0011,0.02675 0.0065,0.03219 0.01388,0.01388 0.0066,-0.01658 0.0058,-0.03639 -0.0018,-0.04402 -0.0076,-0.0076 -0.01306,0.0059 -0.01206,0.03015 z m 0.02297,0.114834 c 0.0011,0.02676 0.0065,0.0322 0.01388,0.01388 0.0066,-0.01658 0.0058,-0.03639 -0.0018,-0.04402 -0.0076,-0.0076 -0.01306,0.0059 -0.01206,0.03015 z m 0.02297,0.09187 c 0.0011,0.02676 0.0065,0.0322 0.01388,0.01388 0.0066,-0.01658 0.0058,-0.03639 -0.0018,-0.04402 -0.0076,-0.0076 -0.01306,0.0059 -0.01206,0.03015 z m 0.02297,0.09187 c 0.0011,0.02676 0.0065,0.0322 0.01388,0.01388 0.0066,-0.01658 0.0058,-0.03639 -0.0018,-0.04402 -0.0076,-0.0076 -0.01306,0.0059 -0.01206,0.03015 z m 0.02297,0.09187 c 0.0011,0.02676 0.0065,0.0322 0.01388,0.01388 0.0066,-0.01658 0.0058,-0.03639 -0.0018,-0.04402 -0.0076,-0.0076 -0.01306,0.0059 -0.01206,0.03015 z m 0.02297,0.09187 c 0.0011,0.02676 0.0065,0.0322 0.01388,0.01388 0.0066,-0.01658 0.0058,-0.03639 -0.0018,-0.04401 -0.0076,-0.0076 -0.01306,0.0059 -0.01206,0.03015 z"
       id="path23"
       inkscape:connector-curvature="0" /></g></svg>